<?xml version="1.0" encoding="UTF-8" standalone="no"?><svg xmlns:dc="http://purl.org/dc/elements/1.1/" xmlns:cc="http://creativecommons.org/ns#" xmlns:rdf="http://www.w3.org/1999/02/22-rdf-syntax-ns#" xmlns:svg="http://www.w3.org/2000/svg" xmlns="http://www.w3.org/2000/svg" xmlns:sodipodi="http://sodipodi.sourceforge.net/DTD/sodipodi-0.dtd" xmlns:inkscape="http://www.inkscape.org/namespaces/inkscape" width="414.64441mm" height="148.36926mm" viewBox="0 0 414.64441 148.36926" version="1.1" id="svg8" sodipodi:docname="imperium-logo-branco.svg" inkscape:version="0.92.1 r15371"> <defs id="defs2"/> <sodipodi:namedview id="base" pagecolor="#ffffff" bordercolor="#666666" borderopacity="1.0" inkscape:pageopacity="0.0" inkscape:pageshadow="2" inkscape:zoom="0.47" inkscape:cx="1152.5745" inkscape:cy="244.92525" inkscape:document-units="mm" inkscape:current-layer="layer1" showgrid="false" inkscape:snap-text-baseline="false" inkscape:window-width="1600" inkscape:window-height="837" inkscape:window-x="-8" inkscape:window-y="-8" inkscape:window-maximized="1"/> <metadata id="metadata5"> <rdf:RDF> <cc:Work rdf:about=""> <dc:format>image/svg+xml</dc:format> <dc:type rdf:resource="http://purl.org/dc/dcmitype/StillImage"/> <dc:title/> </cc:Work> </rdf:RDF> </metadata> <g inkscape:label="Camada 1" inkscape:groupmode="layer" id="layer1" transform="translate(-3.0598901,-71.931524)"> <g aria-label="Imperium" style="font-style:normal;font-variant:normal;font-weight:normal;font-stretch:normal;font-size:64.91795349px;line-height:1.25;font-family:Celticmd;-inkscape-font-specification:Celticmd;font-variant-ligatures:normal;font-variant-caps:normal;font-variant-numeric:normal;font-feature-settings:normal;text-align:center;letter-spacing:0px;word-spacing:0px;writing-mode:lr-tb;text-anchor:middle;fill:#ffffff;fill-opacity:1;stroke:none;stroke-width:1.62294888" id="text3682" transform="translate(0,68.79167)"> <path d="m 28.038087,16.770089 q -0.126793,0.126793 -0.253586,0.126793 -0.285284,0 -0.602266,-0.570568 -0.285284,-0.570568 -0.285284,-0.729059 0.919249,-2.50416 1.014343,-4.406053 0,-1.172834 -0.253586,-1.9335912 l -9.224181,-0.095095 q -0.316983,0.3803787 -0.316983,0.4754733 0.253586,0.6656629 0.602267,1.1094379 0.34868,0.443775 0.919248,1.046041 0.602266,0.570568 1.172834,1.07774 0.570568,0.507171 0.824154,0.792455 l -0.665663,1.046042 q -0.0317,0 -0.158491,0.0317 -0.0951,0 -0.221887,0.0317 -3.201521,-1.458118 -4.659639,-4.374354 -0.0317,-0.4120775 -0.316982,-1.2679294 -0.285284,-0.8558519 -0.285284,-1.1728341 0,-0.6022662 0.443775,-0.8558519 l 13.503442,0.063396 q 0.34868,1.8384967 0.34868,3.5818984 0,3.74039 -1.584911,6.022662 z m -3.233218,3.518502 q -1.711704,0.950947 -2.85284,0.950947 -0.824154,0 -1.236231,-0.507172 -0.34868,-0.285284 -0.443775,-0.443775 -0.09509,-0.190189 -0.190189,-0.792455 0,-2.916237 2.504159,-5.325301 0.19019,-0.253586 0.570568,-0.88755 0.412077,-0.633965 0.412077,-1.046042 0,-0.380378 -0.190189,-0.665662 -0.221888,-0.316982 -0.792456,-0.316982 l -1.616609,0.729059 Q 20.779195,11.76177 20.367118,11.381391 19.955041,11.001013 19.79655,10.810824 19.923343,10.398747 20.081834,10.398747 L 25.31204,9.9549716 q 0.126793,0 0.285284,0.4437754 0.126793,0.697361 0.126793,1.046041 0,1.141136 -0.475473,1.870195 -0.475474,0.729059 -1.806799,2.345668 -1.331325,1.616609 -1.680005,2.599254 v 1.299627 q 0.190189,0 0.855852,-0.34868 0.665662,-0.348681 0.950946,-0.348681 0.126793,0 0.253586,0.126793 z m -3.518503,7.575875 q -0.0634,0 -0.126793,0.0317 -0.0634,0 -0.126792,0.0317 -4.025674,-2.567556 -5.261905,-8.812105 0.0634,-0.982645 0.126793,-2.060384 0.09509,-1.109438 0.380379,-2.028686 0.285284,-0.919249 0.919248,-1.363024 1.141136,0.760758 1.236231,1.299627 -0.0634,0.126793 -0.158492,0.412077 -0.09509,0.253586 -0.34868,0.633965 -0.126793,1.014343 -0.126793,1.553212 0,4.81813 4.786431,9.002295 z m 6.751721,3.328313 q -0.0317,0.0317 -0.0634,0.09509 -0.0317,0.0317 -0.0634,0.0951 -0.855852,-0.855852 -0.950946,-1.236231 0.158491,-0.507171 0.475473,-1.394721 0.34868,-0.88755 0.507171,-1.584911 0.19019,-0.729059 0.19019,-1.489817 0,-0.602266 -0.221888,-1.489816 -0.34868,-2.250573 -1.363023,-3.581899 -1.014343,-1.331325 -3.169822,-3.581898 0.950946,-0.950947 1.42642,-0.950947 1.267928,0.88755 2.535857,2.409065 1.299627,1.489816 1.996988,3.043029 0.602266,1.584911 0.602266,3.486804 0,3.676993 -1.901893,6.181153 z m -7.132099,4.08907 q -1.109438,-1.553213 -1.109438,-2.726047 0,-1.109438 0.919248,-2.504159 0.919249,-1.394722 3.106426,-3.486804 0.792455,-1.42642 0.792455,-2.123781 0,-0.507172 -0.316982,-0.919248 -0.570568,0 -1.204532,0.412076 -0.602266,0.380379 -0.950947,0.380379 l -1.172834,-1.489816 4.564544,-1.521515 q 0.412077,0.475473 0.824153,1.584911 0,2.060384 -0.729059,3.328313 -0.69736,1.267929 -2.250573,2.757745 -0.0634,0.0951 -0.855852,1.267929 -0.760757,1.172834 -0.760757,1.838497 0,0.475473 0.190189,0.855852 l 1.870195,-0.253586 q 0.919248,0.475473 0.919248,1.046041 -1.42642,1.553213 -3.835484,1.553213 z m 0.602266,5.769076 q -0.475473,-0.0317 -0.919248,-0.53887 Q 20.14523,40.004884 19.79655,39.814694 19.511266,39.370919 18.306734,38.134689 17.1339,36.86676 16.563332,36.042606 q -1.109438,-1.648307 -1.109438,-4.025674 0,-3.043029 1.743402,-5.705679 0.158491,-0.190189 0.475473,-0.190189 0.824154,0.824153 0.824154,1.363023 -0.0951,0.380379 -0.443775,0.88755 -0.34868,0.475473 -0.507172,1.046041 -0.253585,0.887551 -0.253585,1.901894 0,1.23623 0.412077,2.409064 0.443775,1.141136 1.109437,2.218876 0.697361,1.046041 2.060384,2.694348 1.394722,1.648308 1.458119,1.711704 z m 7.322289,3.296615 H 28.70375 l -1.046042,-1.363024 q 0.316983,-1.363023 0.316983,-2.377366 0,-1.648308 -0.53887,-3.264917 -0.53887,-1.648307 -1.394722,-3.138123 -0.855852,-1.521515 -1.743402,-2.757746 -0.126793,-0.158491 -0.53887,-0.475473 -0.380378,-0.34868 -0.380378,-0.633964 0.158491,-0.0951 0.53887,-0.507172 0.380378,-0.412077 0.69736,-0.412077 1.363024,1.046042 2.218876,2.409065 0.88755,1.363023 1.870195,3.328313 1.046041,2.662651 1.046041,5.103413 0,2.345669 -0.919248,4.089071 z m -3.296615,2.947934 q -2.979633,1.838497 -5.325301,1.996988 -0.0634,0 -0.348681,-0.443775 -0.126792,-0.950947 -0.126792,-1.236231 0,-1.806798 0.602266,-2.884538 0.633964,-1.109437 2.060384,-2.916236 1.42642,-1.806798 1.901893,-3.106425 -0.09509,-0.570568 -0.53887,-0.570568 -0.158491,0 -0.602266,0.158491 -0.443775,0.158491 -0.697361,0.221887 -0.855851,-0.443775 -0.950946,-1.046041 1.584911,-1.363023 3.106425,-1.363023 0.570568,0 0.982645,0.221887 0.443775,0.982645 0.443775,1.933592 0,1.109437 -0.507171,2.060384 -0.475474,0.950946 -1.521515,2.218875 -1.014343,1.267929 -1.584911,2.123781 -0.538869,0.824154 -0.665662,1.901893 0.0317,0.0951 0.126793,0.443775 0.09509,0.348681 0.316982,0.348681 l 2.852839,-0.982645 z m -4.754733,8.304934 H 20.589006 Q 18.909,54.395875 17.007107,52.081905 q -1.42642,-2.409064 -1.42642,-5.388697 0,-3.772088 2.092082,-6.339644 0.126793,-0.158491 0.443775,-0.158491 0.792456,0.0634 1.172835,0.855852 -1.806799,1.806798 -1.806799,5.959265 0.0951,1.680006 0.729059,2.947935 0.665663,1.23623 1.42642,2.028686 0.760757,0.760757 2.504159,2.440763 -0.919248,1.046041 -1.363023,1.172834 z m 7.861158,1.933591 q -0.919248,0 -1.23623,-1.299627 0.412077,-1.014343 0.633964,-2.916236 0.0951,-0.443775 0.0951,-1.299627 0,-4.025674 -3.772088,-8.621916 l 0.950946,-0.792455 q 0.855852,0.221887 1.42642,0.824153 0.570568,0.602267 1.046041,1.42642 0.475474,0.824154 1.109438,1.901893 1.046041,2.979633 1.046041,5.70568 0,2.916236 -1.109437,5.008319 -0.0317,0 -0.09509,0.0317 -0.0317,0 -0.0951,0.0317 z m -6.498135,4.025674 q -0.253585,-0.126793 -1.014343,-0.34868 -0.729059,-0.253586 -0.855852,-0.53887 0,-1.267929 0.443775,-2.409065 0.475474,-1.141136 1.109438,-1.96529 0.633964,-0.824153 1.7751,-2.060384 1.141136,-1.267929 1.458118,-1.680005 -0.0317,-0.285284 -0.443775,-0.475474 l -2.66265,0.665663 q -0.760757,-0.253586 -1.236231,-0.982645 0.0317,-0.126793 0.0317,-0.221887 0.0317,-0.126793 0.0317,-0.221888 2.789443,-1.648307 4.881526,-1.648307 0.665662,0 1.23623,0.221887 0.0634,0.126793 0.126793,0.285284 0.0634,0.158491 0.126793,0.412077 0,3.455106 -2.85284,5.578887 -0.253586,0.285284 -0.760757,0.88755 -0.507172,0.570568 -0.792456,1.141136 -0.285284,0.570568 -0.285284,1.23623 0.380379,0.253586 0.792456,0.253586 0.158491,0 0.792455,-0.158491 0.633965,-0.158491 1.014343,-0.158491 0.507172,0.253586 0.792456,0.760757 -0.253586,0.824154 -0.792456,0.982645 -0.538869,0.126793 -2.916236,0.443775 z m -5.388697,2.218875 q -0.412077,-0.126793 -0.824154,-0.538869 -0.221887,-0.887551 -0.221887,-1.870195 0,-3.233219 1.965289,-6.434739 1.299627,0.443775 1.299627,1.172834 -1.299627,1.96529 -1.299627,4.342656 0,0.950947 0.253586,1.584911 2.599254,0.316982 4.723035,0.316982 2.789443,0 4.691336,-0.602266 v -0.507171 q -0.253585,-2.060385 -3.106425,-3.581899 0.475473,-0.53887 0.729059,-0.760757 0.285284,-0.253586 0.824154,-0.253586 0.221887,0.0317 0.34868,0.126793 0.158491,0.09509 0.475473,0.380378 0.348681,0.253586 0.53887,0.380379 1.870195,1.680006 1.870195,4.691337 0,0.412076 -0.126793,1.363023 z m 14.010613,0.570568 0.0951,-58.0394396 H 14.28106 V 64.349116 Z m 7.037005,2.726047 -32.3321842,0.0634 q 0.6973608,-1.29963 1.1728341,-2.155482 0.4754733,-0.887551 1.0143431,-2.060385 0.5705679,-1.204532 0.9192483,-2.345668 1.2362306,-5.103413 2.1554787,-12.425702 0.950947,-7.353987 0.950947,-14.486086 0,-19.335914 -6.624928,-29.6061372 l 32.617468,-0.063396 q -1.172834,1.5215145 -1.363024,1.9335913 -0.69736,1.8067986 -1.141136,4.2158629 -0.443775,2.409065 -0.69736,5.261904 -0.221888,2.85284 -0.348681,6.149455 -0.09509,3.264917 -0.158491,5.071715 -0.126793,3.930579 -0.126793,5.800774 0,5.737378 0.443775,11.886833 0.475474,6.117756 1.331326,11.791737 0.88755,5.642283 2.187177,10.967584 z m 2.12378,0.982645 Q 38.84718,65.648743 37.991328,62.161939 37.135476,58.643437 36.691701,55.632106 36.279624,52.620775 35.899246,49.260764 35.550565,45.900753 35.328678,43.45999 34.948299,40.797339 34.948299,32.365613 q 0,-8.241537 0.253586,-12.679288 0,-3.645295 0.950946,-9.414371 0.950947,-4.596242 3.898881,-7.1320996 H 3.0598901 q 0,0.570568 0.063397,0.7924555 1.2362305,1.9018932 2.028686,3.2015202 0.8241537,1.2679288 1.4264199,2.6309522 0.6022662,1.3313257 1.3313252,4.2792597 0.7607573,2.916236 1.4581181,6.815117 0.8875507,3.550201 0.8875507,11.03098 0,3.898881 -0.2852845,8.780407 -0.2535858,4.881526 -0.7290591,9.731354 -0.9509465,5.51549 -2.4090646,9.921542 -1.4264199,4.374355 -3.7720882,7.734366 z" style="font-variant-ligatures:normal;font-variant-caps:normal;font-variant-numeric:normal;font-feature-settings:normal;text-align:center;writing-mode:lr-tb;text-anchor:middle;fill:#ffffff;stroke-width:1.62294888" id="path3761" inkscape:connector-curvature="0"/> <path d="m 106.26929,62.035146 h 2.18718 q -0.0951,0 2.91624,-0.855852 0.82415,-0.190189 3.64529,-1.109437 l 1.04604,-0.316983 -0.60226,1.236231 q -0.41208,0.824154 -1.20453,1.901893 -0.79246,1.046041 -1.10944,1.648308 -0.31698,0.570568 -0.63397,1.204532 -0.31698,0.633964 -0.53887,1.077739 l -0.60226,1.172834 -0.95095,-0.190189 q -0.72906,-0.158491 -1.23623,-0.285284 -0.50717,-0.126793 -0.85585,-0.190189 -2.75775,-0.190189 -2.59926,-0.190189 h -6.371338 q -0.982644,0 -5.705679,0.538869 -0.633964,0.0317 -2.440763,0.348681 -1.7751,0.285284 -3.011331,0.285284 h -1.23623 l 0.34868,-0.982645 q 0.0317,-0.190189 2.250574,-1.521515 2.218875,-1.331325 4.025673,-2.66265 1.838497,-1.363024 2.979633,-2.821142 1.870195,-2.282271 2.662651,-3.391709 0.79246,-1.141136 1.39472,-2.726047 0.63397,-1.584911 0.63397,-3.550201 v -2.726046 q 0,-0.443776 -0.22189,-1.42642 -0.19019,-0.982645 -0.60227,-2.028686 -0.41207,-1.046042 -1.077738,-1.870195 Q 98.376438,41.4947 96.72813,40.860736 95.111521,40.195073 94.033782,40.195073 h -1.141136 q -0.665663,0 -2.282272,1.172834 -1.584911,1.172834 -3.264917,3.011331 -1.648307,1.838497 -2.440763,3.550201 -1.141136,2.377366 -1.838496,6.117756 -0.697361,3.74039 -0.697361,4.659638 v 2.345668 q 0,1.363024 0.190189,3.043029 0.126793,1.046042 0.507172,2.535858 l 0.538869,1.553213 -1.23623,-0.0634 q -0.412077,-0.0634 -2.250574,-0.221887 -1.838497,-0.158491 -3.581899,-0.158491 -2.409064,0 -4.818129,0.253585 l -1.046041,0.126793 0.412077,-1.42642 q 0.443775,-1.394721 0.507171,-1.7751 0.0951,-0.412077 0.316982,-1.553213 0.221888,-1.172834 0.443775,-2.31397 0.348681,-1.648307 0.855852,-4.786431 0.507172,-3.169822 0.507172,-3.645295 v -3.962277 q 0,-0.760758 -0.285284,-2.440763 -0.285284,-1.711704 -0.982645,-2.694349 -0.475473,-0.665663 -1.109438,-1.267929 -0.633964,-0.633964 -1.331325,-1.014343 -0.665662,-0.380378 -1.204532,-0.380378 h -0.982645 q -1.870195,0.0634 -4.152467,2.218875 -2.250573,2.123781 -3.233218,4.849828 -0.475473,1.363023 -0.919248,3.423407 -0.412077,2.060385 -0.633965,3.835485 -0.221887,1.7751 -0.221887,2.028686 v 3.962277 q 0,1.363024 0.412076,3.043029 0.126793,0.570568 0.253586,1.046042 0.158491,0.443775 0.221888,0.69736 0.09509,0.253586 0.158491,0.855852 l 0.190189,1.363024 -0.824154,-0.0634 q -0.824153,-0.09509 -2.440762,-0.34868 -1.61661,-0.285284 -2.409065,-0.34868 -0.760757,-0.0951 -1.584911,-0.0951 -1.014343,0 -2.694349,0.253586 -1.680005,0.221887 -2.440763,0.221887 h -1.489816 l 0.570568,-1.838497 q 0.0634,-0.158491 0.570568,-1.584911 0.53887,-1.458118 0.919248,-2.694348 0.412077,-1.267929 0.665663,-2.726047 0.507171,-2.726047 0.729059,-5.071715 0.253586,-2.377367 0.253586,-5.420396 v -3.328313 q 0,-2.66265 -1.046042,-4.723034 -0.507171,-1.046042 -1.109437,-1.648308 -0.602266,-0.602266 -1.933592,-1.806798 l -1.711703,-1.61661 2.028686,0.19019 h 4.532845 q 1.489816,0 4.818129,-0.443775 1.363024,-0.19019 4.025674,-0.855852 l 1.236231,-0.316982 v 2.472461 l 0.0634,1.553212 1.616609,-0.253585 q 0,0 0.570568,-0.221888 0.602267,-0.253586 0.982645,-0.380379 0.602266,-0.158491 1.648308,-0.158491 1.046041,0 1.616609,-0.158491 0.729059,-0.316982 2.155479,-0.88755 1.458118,-0.602266 3.360011,-1.141136 1.901893,-0.570568 3.423408,-0.570568 2.282271,0.0634 3.803786,0.665663 1.521515,0.570568 2.440763,2.123781 l 0.88755,1.489816 1.299627,-0.380379 q 0.190189,0 1.014343,-0.443775 0.824154,-0.443775 1.267929,-0.53887 1.299627,-0.412076 3.233218,-0.633964 l 0.982645,-0.0634 q 0.190189,0 2.218875,-0.792456 2.028686,-0.824154 2.85284,-1.046041 1.743402,-0.380379 3.074727,-0.602266 1.331318,-0.221888 1.648308,-0.221888 l 0.72905,0.126793 q 2.44077,0.221888 3.86719,0.665663 1.45812,0.443775 2.94793,1.584911 2.02869,1.584911 3.16982,3.74039 1.17284,2.155479 1.17284,4.310957 v 3.898881 q 0,1.933592 -0.41208,3.423408 -0.41208,1.489816 -1.20453,3.264917 -0.53887,1.23623 -1.7434,2.947934 -1.17284,1.680006 -1.36303,1.870195 z" style="font-variant-ligatures:normal;font-variant-caps:normal;font-variant-numeric:normal;font-feature-settings:normal;text-align:center;writing-mode:lr-tb;text-anchor:middle;fill:#ffffff;stroke-width:1.62294888" id="path3763" inkscape:connector-curvature="0"/> <path d="m 133.43467,37.152044 1.42642,-0.443775 q 0.28528,-0.0634 0.72906,-0.285284 0.44378,-0.221888 0.57057,-0.253586 0.82415,-0.285284 1.61661,-0.412077 0.79245,-0.158491 0.98264,-0.158491 h 0.91925 q 0.72906,0 1.7117,-0.443775 0.98265,-0.443775 1.33133,-0.53887 0.63396,-0.158491 1.14114,-0.285284 0.53886,-0.126792 1.23623,-0.253585 0.72905,-0.158491 0.88755,-0.158491 h 3.29661 q 4.15247,0 7.92456,3.772088 1.6483,1.648307 2.66265,4.279259 1.04604,2.599254 1.04604,4.152467 v 2.535858 q 0,2.884538 -1.20454,5.895868 -1.20453,3.011331 -3.4868,5.578887 -1.64831,1.838497 -3.16982,2.947934 -1.48982,1.109438 -3.32831,1.806799 -1.8385,0.665663 -4.21587,1.077739 l -1.42642,0.285284 q -0.72906,0.126793 -1.8068,0.633965 -1.07774,0.507171 -1.96529,0.729059 -0.63396,0.158491 -1.6166,0.380378 -0.95095,0.19019 -1.8702,0.19019 l -3.83548,-0.0634 v 4.152467 q 0,3.328313 0.25358,5.325301 0.38038,3.486804 0.72906,4.532845 l 0.31698,1.521515 -1.68,-0.158491 q -1.07774,-0.0317 -2.63095,-0.221888 -1.52152,-0.158491 -2.82115,-0.158491 -2.75774,0 -5.2619,0.316982 l -1.17283,0.221888 0.12679,-0.855852 q 0.22189,-1.267929 0.98264,-7.005307 0.44378,-4.564543 0.60227,-8.17814 0.15849,-3.645295 0.15849,-8.590218 v -7.987951 q 0,-4.342656 -0.44378,-7.892857 -0.12679,-1.267928 -0.41207,-2.567555 -0.25359,-1.299627 -0.60227,-2.85284 -0.34868,-1.584911 -0.41207,-1.806799 l -0.53887,-1.680005 1.23623,0.0634 q 1.07774,0.126793 5.45209,0.126793 3.32831,0 5.3253,-0.316982 l 1.29963,-0.253586 -0.0634,1.806799 z m -0.50717,21.871771 0.63396,0.792456 q 0.85586,0.792455 3.32832,1.743402 2.69435,1.046041 4.15246,1.046041 l 0.85586,-0.0634 q 0.34868,-0.0951 2.09208,-1.616609 1.7434,-1.553213 2.63095,-2.916237 1.29963,-1.965289 1.8385,-3.328313 0.57057,-1.363023 0.57057,-3.106425 v -3.043029 q 0,-1.014343 -0.53887,-2.630952 -0.53887,-1.648308 -1.48982,-2.757746 -1.07774,-1.331325 -2.66265,-2.187177 -1.55321,-0.88755 -2.85284,-0.88755 h -1.04604 q -0.60227,0 -1.8068,0.982645 -1.17284,0.950947 -2.37737,2.440763 -1.17283,1.458118 -1.7751,2.821141 -0.88755,2.187178 -1.33132,5.008319 -0.41208,2.789443 -0.41208,4.532845 v 1.870195 z" style="font-variant-ligatures:normal;font-variant-caps:normal;font-variant-numeric:normal;font-feature-settings:normal;text-align:center;writing-mode:lr-tb;text-anchor:middle;fill:#ffffff;stroke-width:1.62294888" id="path3765" inkscape:connector-curvature="0"/> <path d="m 177.78048,51.447941 v 1.806798 q 0,0.697361 0.72905,3.201521 0.76076,2.504159 1.9336,3.803786 0.95094,1.014343 2.53585,1.616609 1.61661,0.602266 3.20152,0.855852 1.58491,0.253586 1.9336,0.253586 h 1.93359 q 0.69736,0 3.80378,-1.014343 3.10643,-1.046041 5.48379,-2.155479 2.18718,-0.982645 4.84983,-2.630952 2.69435,-1.648308 3.39171,-2.060385 l 1.04604,-0.570568 -0.57056,1.489817 q -0.1268,0.126793 -1.29963,2.218875 -1.14114,2.060384 -2.15548,4.08907 -0.38038,0.792456 -0.76076,1.553213 -0.38038,0.760757 -0.66566,1.42642 -0.28528,0.633964 -0.50717,1.363023 l -0.47548,1.109438 h -2.06038 -8.9072 q -0.41208,0 -1.42642,-0.158491 -0.98264,-0.158491 -1.8068,-0.158491 -0.69736,0 -1.7751,0.221888 -1.04604,0.221887 -1.55321,0.221887 h -3.04303 q -2.66265,0 -4.69134,-0.316982 -2.02868,-0.316982 -3.80378,-1.204532 -1.7751,-0.887551 -3.32832,-2.567556 -1.55321,-1.775101 -2.44076,-3.962278 -0.85585,-2.218875 -0.85585,-4.279259 v -4.152467 q 0,-3.328313 1.7117,-6.59323 1.74341,-3.264916 4.91323,-6.086058 1.7751,-1.584911 3.4551,-2.409065 1.68001,-0.824153 3.45511,-1.204532 1.7751,-0.412077 4.78643,-0.760757 3.04303,-0.380379 4.05737,-0.53887 l 2.66265,-0.475473 h 2.72605 q 1.93359,0 4.88153,0.982645 2.94793,0.950946 4.81812,2.916236 1.48982,1.489816 2.40907,3.328313 0.95095,1.806798 0.95095,3.296615 v 2.852839 l -1.42642,4.944923 -1.61661,-0.126793 q -0.95095,-0.126793 -2.09209,-0.285284 -1.14113,-0.190189 -2.09208,-0.285284 -0.91925,-0.126793 -1.8068,-0.158491 -0.91924,0 -2.28227,0.316982 -1.33132,0.285284 -4.78643,0.285284 z m 17.90949,-5.261905 0.22189,-1.109437 v -1.046041 q 0,-0.412077 -0.63397,-1.458119 -0.60226,-1.046041 -1.33132,-1.648307 -0.79246,-0.824154 -1.99699,-1.331325 -1.17283,-0.53887 -2.40907,-0.792456 -1.20453,-0.285284 -1.55321,-0.285284 h -1.10944 q -0.28528,0 -1.83849,0.760758 -1.52152,0.729059 -2.75775,1.648307 -1.04604,0.919248 -1.99699,1.96529 -0.91924,1.046041 -1.01434,1.616609 l -0.44377,2.250573 h 2.09208 z" style="font-variant-ligatures:normal;font-variant-caps:normal;font-variant-numeric:normal;font-feature-settings:normal;text-align:center;writing-mode:lr-tb;text-anchor:middle;fill:#ffffff;stroke-width:1.62294888" id="path3767" inkscape:connector-curvature="0"/> <path d="m 249.29165,43.586782 q -0.34868,0 -0.47547,-0.221887 -0.12679,-0.221888 -0.41208,-0.950947 -0.28528,-0.729059 -0.50717,-1.109437 -0.22188,-0.380379 -0.66566,-0.633965 -0.60227,-0.412077 -1.99699,-0.950946 -1.36302,-0.53887 -1.7117,-0.53887 h -0.57057 q -0.63396,0.0634 -3.10642,1.7751 -2.47247,1.711704 -3.80379,3.328313 -1.14114,1.394722 -2.09208,3.613597 -0.95095,2.218876 -1.48982,4.120769 -0.50717,1.870195 -0.50717,2.218875 l -0.25359,5.578887 v 2.599254 q 0,0.126793 0.31698,2.599254 0.41208,1.743402 0.41208,1.870195 l 0.19019,1.046041 -0.85585,-0.0634 q -0.38038,-0.0634 -2.18718,-0.126793 -1.7751,-0.0634 -2.94793,-0.0634 -0.25359,0 -1.52152,0.0951 -1.26793,0.0634 -1.96529,0.126793 -0.66566,0.0317 -0.60226,0.0317 h -1.8702 l 0.1268,-0.792455 q 0.28528,-2.916237 0.53886,-5.040017 0.25359,-3.772088 0.34869,-5.420396 0.0951,-1.680006 0.0951,-1.996988 v -8.685312 q 0,-0.982645 -0.79246,-3.043029 -0.79245,-2.060384 -2.12378,-3.264917 -0.95094,-0.855851 -1.7117,-1.363023 -0.76076,-0.507171 -1.61661,-1.014343 -0.85585,-0.53887 -1.55321,-1.141136 l -0.98265,-0.950946 2.78945,0.126792 q 2.44076,0 3.23321,-0.0317 0.79246,-0.0317 1.74341,-0.126793 0.98264,-0.09509 2.69435,-0.316982 3.83548,-0.316982 6.18115,-0.88755 l 1.29963,-0.316982 q 0.28528,1.489816 0.31698,1.680005 0.0634,0.253586 0.0951,0.507172 0.0634,0.221887 0.1268,0.475473 0.0634,0.253586 0.0951,0.507172 l 0.25359,1.172834 0.98264,-0.792456 q 0.12679,-0.0317 1.33133,-0.633964 1.23623,-0.602266 2.12378,-0.729059 4.84982,-0.824154 6.14945,-0.88755 h 0.91925 q 0.0317,0 1.20453,-0.412077 1.17284,-0.443775 2.15548,-0.633964 0.19019,0 1.52152,-0.158492 1.33132,-0.158491 1.26792,-0.158491 h 3.7087 q 0.91924,0 3.07472,0.824154 2.18718,0.824154 3.42341,2.155479 1.01434,1.077739 2.06038,3.20152 1.04605,2.092083 1.04605,3.011331 0,0.34868 -0.44378,0.34868 l -5.2619,-2.092082 z" style="font-variant-ligatures:normal;font-variant-caps:normal;font-variant-numeric:normal;font-feature-settings:normal;text-align:center;writing-mode:lr-tb;text-anchor:middle;fill:#ffffff;stroke-width:1.62294888" id="path3769" inkscape:connector-curvature="0"/> <path d="m 288.37556,36.835062 q 0,0.158491 -0.1268,0.88755 -0.12679,0.729059 -0.28528,1.521514 -0.38038,3.74039 -0.38038,4.913224 v 4.754733 q 0,0.760758 0.44378,8.748709 0.63396,7.417383 0.79245,7.924555 l 0.98265,2.789443 -2.59926,-0.190189 q -0.85585,-0.0951 -2.37736,-0.126793 -1.48982,-0.0634 -2.56756,-0.0634 -0.88755,0.0317 -2.09208,0.126793 -1.17284,0.0951 -2.72605,0.253586 l -1.87019,0.126793 0.44377,-1.299627 q 0.44378,-1.331325 0.98265,-4.025674 0.60226,-3.138124 0.60226,-6.276247 v -9.731354 q 0,-1.933591 -0.44377,-3.328313 -0.41208,-1.42642 -1.39472,-2.979632 -0.31699,-0.570568 -0.85586,-1.204533 -0.53887,-0.633964 -0.95094,-0.982645 -0.38038,-0.34868 -0.91925,-0.824153 -0.53887,-0.475474 -0.63397,-0.570568 l -1.48981,-1.42642 h 8.43172 q 1.68001,0 4.15247,-0.507172 1.36303,-0.158491 3.16982,-0.665662 l 1.9019,-0.633965 z m -4.94492,-4.754733 q -0.60227,-0.0951 -1.14114,-0.19019 -0.53887,-0.09509 -1.61661,-0.34868 -1.07774,-0.253586 -1.93359,-0.475473 -1.8385,-0.507172 -4.40605,-1.489817 0.38037,-0.09509 1.17283,-0.824153 0.82415,-0.760757 2.09208,-1.901893 1.26793,-1.172835 2.12378,-1.775101 1.10944,-0.792455 2.40907,-1.584911 1.33132,-0.824153 2.69435,-1.489816 1.36302,-0.697361 1.52151,-0.760757 l 5.95927,3.20152 z" style="font-variant-ligatures:normal;font-variant-caps:normal;font-variant-numeric:normal;font-feature-settings:normal;text-align:center;writing-mode:lr-tb;text-anchor:middle;fill:#ffffff;stroke-width:1.62294888" id="path3771" inkscape:connector-curvature="0"/> <path d="m 326.60362,65.268365 -1.8702,0.316982 q -0.15849,0.0317 -0.57057,0.158491 -0.38038,0.126793 -0.72906,0.221887 -0.85585,0.285284 -1.90189,0.380379 -1.01434,0.0634 -1.55321,0.0951 l -0.82416,0.0634 q -3.4551,0 -5.86417,1.046041 -0.95094,0.443775 -2.40906,0.665663 -1.45812,0.221888 -1.8702,0.221888 h -1.36302 q -0.95095,0 -3.5819,-0.855852 -2.59925,-0.887551 -4.27926,-2.630953 -1.93359,-1.965289 -2.97963,-4.501147 -1.04604,-2.567556 -1.04604,-4.723034 v -2.092083 q 0,-0.729059 0.53887,-3.169822 0.53887,-2.440763 1.36302,-4.08907 1.14114,-2.31397 3.04303,-4.215863 l 1.29963,-1.61661 h -0.98265 q -0.82415,0 -1.39472,0.0634 -0.53887,0.0317 -1.26793,0.0634 -0.95094,0.158491 -2.18717,0.443775 l -1.23624,0.253586 2.91624,-6.751721 4.34266,0.475474 h 6.05436 q 0.44377,0 3.23322,-0.158491 2.78944,-0.158492 5.64228,-0.253586 0.95094,-0.0634 1.68,-0.0951 0.72906,-0.0317 1.14114,-0.0634 0.44377,-0.0317 0.95095,-0.0317 h 3.77208 L 323.307,35.72563 q -0.31698,0.190189 -1.48982,0.855852 -1.14113,0.633964 -2.69434,1.584911 -1.55322,0.950947 -3.20152,2.155479 -1.64831,1.172834 -2.82115,2.282272 -2.50416,2.567555 -3.86718,4.786431 -1.36302,2.187177 -1.39472,4.62794 v 2.599254 q 0,0.950946 0.69736,2.85284 0.69736,1.870195 1.90189,3.043029 1.96529,1.806798 5.07172,2.155479 l 1.10944,-0.126793 q 1.17283,-0.0317 2.94793,-0.982645 1.8068,-0.982645 3.5185,-2.630952 1.71171,-1.680006 2.75775,-3.74039 1.29963,-2.535858 1.8068,-4.723035 0.50717,-2.187177 0.50717,-3.391709 v -6.022662 q 0,-0.253586 -0.0951,-1.172834 -0.0951,-0.919249 -0.15849,-1.743402 -0.19019,-2.757745 -0.19019,-2.535858 l -0.12679,-1.553213 1.55321,0.19019 q 2.66265,0.443775 4.94493,0.443775 0.91924,0 1.7117,-0.0634 0.79245,-0.09509 1.48982,-0.190189 0.72905,-0.126793 1.83849,-0.253586 l 1.9019,-0.190189 -0.60227,1.933591 q -0.19019,0.855852 -0.57057,2.726047 -0.34868,1.870195 -0.72906,3.518503 -0.25358,1.141136 -0.57057,3.74039 -0.31698,2.567555 -0.50717,4.374354 -0.19019,1.806798 -0.19019,2.060384 v 6.688324 q 0,3.581899 0.44378,5.673982 0.25358,0.633964 0.47547,1.141136 0.22189,0.507171 0.34868,0.982644 l 0.34868,1.109438 h -1.42642 q -0.19019,0 -0.57056,-0.0317 -0.34869,-0.0634 -1.68001,-0.158491 -1.29963,-0.126793 -2.37737,-0.126793 -0.88755,0 -1.29962,0.0634 -3.04303,0.126793 -3.04303,0.126793 h -2.28227 z" style="font-variant-ligatures:normal;font-variant-caps:normal;font-variant-numeric:normal;font-feature-settings:normal;text-align:center;writing-mode:lr-tb;text-anchor:middle;fill:#ffffff;stroke-width:1.62294888" id="path3773" inkscape:connector-curvature="0"/> <path d="m 407.90955,62.035146 h 2.18718 q -0.0951,0 2.91624,-0.855852 0.82415,-0.190189 3.64529,-1.109437 l 1.04604,-0.316983 -0.60226,1.236231 q -0.41208,0.824154 -1.20454,1.901893 -0.79245,1.046041 -1.10943,1.648308 -0.31699,0.570568 -0.63397,1.204532 -0.31698,0.633964 -0.53887,1.077739 l -0.60226,1.172834 -0.95095,-0.190189 q -0.72906,-0.158491 -1.23623,-0.285284 -0.50717,-0.126793 -0.85585,-0.190189 -2.75775,-0.190189 -2.59926,-0.190189 h -6.37134 q -0.98264,0 -5.70568,0.538869 -0.63396,0.0317 -2.44076,0.348681 -1.7751,0.285284 -3.01133,0.285284 h -1.23623 l 0.34868,-0.982645 q 0.0317,-0.190189 2.25057,-1.521515 2.21888,-1.331325 4.02568,-2.66265 1.83849,-1.363024 2.97963,-2.821142 1.87019,-2.282271 2.66265,-3.391709 0.79245,-1.141136 1.39472,-2.726047 0.63396,-1.584911 0.63396,-3.550201 v -2.726046 q 0,-0.443776 -0.22188,-1.42642 -0.19019,-0.982645 -0.60227,-2.028686 -0.41208,-1.046042 -1.07774,-1.870195 -0.98264,-1.109438 -2.63095,-1.743402 -1.61661,-0.665663 -2.69435,-0.665663 h -1.14114 q -0.66566,0 -2.28227,1.172834 -1.58491,1.172834 -3.26491,3.011331 -1.64831,1.838497 -2.44077,3.550201 -1.14113,2.377366 -1.83849,6.117756 -0.69736,3.74039 -0.69736,4.659638 v 2.345668 q 0,1.363024 0.19018,3.043029 0.1268,1.046042 0.50718,2.535858 l 0.53887,1.553213 -1.23623,-0.0634 q -0.41208,-0.0634 -2.25058,-0.221887 -1.83849,-0.158491 -3.5819,-0.158491 -2.40906,0 -4.81813,0.253585 l -1.04604,0.126793 0.41208,-1.42642 q 0.44377,-1.394721 0.50717,-1.7751 0.0951,-0.412077 0.31698,-1.553213 0.22189,-1.172834 0.44378,-2.31397 0.34868,-1.648307 0.85585,-4.786431 0.50717,-3.169822 0.50717,-3.645295 v -3.962277 q 0,-0.760758 -0.28528,-2.440763 -0.28529,-1.711704 -0.98265,-2.694349 -0.47547,-0.665663 -1.10943,-1.267929 -0.63397,-0.633964 -1.33133,-1.014343 -0.66566,-0.380378 -1.20453,-0.380378 h -0.98265 q -1.87019,0.0634 -4.15246,2.218875 -2.25058,2.123781 -3.23322,4.849828 -0.47548,1.363023 -0.91925,3.423407 -0.41208,2.060385 -0.63397,3.835485 -0.22188,1.7751 -0.22188,2.028686 v 3.962277 q 0,1.363024 0.41207,3.043029 0.1268,0.570568 0.25359,1.046042 0.15849,0.443775 0.22189,0.69736 0.0951,0.253586 0.15849,0.855852 l 0.19019,1.363024 -0.82416,-0.0634 q -0.82415,-0.09509 -2.44076,-0.34868 -1.61661,-0.285284 -2.40906,-0.34868 -0.76076,-0.0951 -1.58491,-0.0951 -1.01435,0 -2.69435,0.253586 -1.68001,0.221887 -2.44077,0.221887 h -1.48981 l 0.57057,-1.838497 q 0.0634,-0.158491 0.57056,-1.584911 0.53887,-1.458118 0.91925,-2.694348 0.41208,-1.267929 0.66566,-2.726047 0.50718,-2.726047 0.72906,-5.071715 0.25359,-2.377367 0.25359,-5.420396 v -3.328313 q 0,-2.66265 -1.04604,-4.723034 -0.50717,-1.046042 -1.10944,-1.648308 -0.60227,-0.602266 -1.93359,-1.806798 l -1.7117,-1.61661 2.02868,0.19019 h 4.53285 q 1.48981,0 4.81813,-0.443775 1.36302,-0.19019 4.02567,-0.855852 l 1.23623,-0.316982 v 2.472461 l 0.0634,1.553212 1.61661,-0.253585 q 0,0 0.57056,-0.221888 0.60227,-0.253586 0.98265,-0.380379 0.60227,-0.158491 1.64831,-0.158491 1.04604,0 1.61661,-0.158491 0.72905,-0.316982 2.15547,-0.88755 1.45812,-0.602266 3.36002,-1.141136 1.90189,-0.570568 3.4234,-0.570568 2.28228,0.0634 3.80379,0.665663 1.52151,0.570568 2.44076,2.123781 l 0.88755,1.489816 1.29963,-0.380379 q 0.19019,0 1.01434,-0.443775 0.82416,-0.443775 1.26793,-0.53887 1.29963,-0.412076 3.23322,-0.633964 l 0.98264,-0.0634 q 0.19019,0 2.21888,-0.792456 2.02869,-0.824154 2.85284,-1.046041 1.7434,-0.380379 3.07473,-0.602266 1.33132,-0.221888 1.6483,-0.221888 l 0.72906,0.126793 q 2.44077,0.221888 3.86719,0.665663 1.45811,0.443775 2.94793,1.584911 2.02869,1.584911 3.16982,3.74039 1.17284,2.155479 1.17284,4.310957 v 3.898881 q 0,1.933592 -0.41208,3.423408 -0.41208,1.489816 -1.20453,3.264917 -0.53887,1.23623 -1.7434,2.947934 -1.17284,1.680006 -1.36303,1.870195 z" style="font-variant-ligatures:normal;font-variant-caps:normal;font-variant-numeric:normal;font-feature-settings:normal;text-align:center;writing-mode:lr-tb;text-anchor:middle;fill:#ffffff;stroke-width:1.62294888" id="path3775" inkscape:connector-curvature="0"/> </g> <g aria-label="LARP" style="font-style:normal;font-variant:normal;font-weight:normal;font-stretch:normal;font-size:64.91795349px;line-height:1.25;font-family:Celticmd;-inkscape-font-specification:Celticmd;font-variant-ligatures:normal;font-variant-caps:normal;font-variant-numeric:normal;font-feature-settings:normal;text-align:center;letter-spacing:0px;word-spacing:0px;writing-mode:lr-tb;text-anchor:middle;fill:#ffffff;fill-opacity:1;stroke:none;stroke-width:1.622949" id="text3682-4" transform="translate(0,64.02917)"> <path d="m 127.33997,153.22859 q -0.88755,-3.83548 -2.06038,-9.44607 -1.14114,-5.64228 -1.93359,-9.03399 -0.76076,-3.42341 -2.02869,-7.54418 -1.26793,-4.15246 -2.85284,-7.29059 -0.66566,4.50115 -2.34567,8.49513 -1.68,3.96227 -4.37435,7.54417 -2.66265,3.5502 -6.14946,6.81512 -2.88453,1.96529 -7.195493,1.96529 -0.919248,0 -1.363023,-0.0634 0,-19.87478 0,-27.79934 0.0317,-7.95625 0.126793,-12.64759 0.126793,-4.72303 0.285284,-6.276243 0.190189,-1.584911 0.697361,-4.120768 0.538869,-1.141136 0.88755,-1.901894 0.34868,-0.760757 0.824154,-1.363023 0.475474,-0.633964 1.267924,-1.267929 l 0.44378,-0.982645 H 66.13071 q 3.708692,3.803787 5.040017,8.241537 1.331325,4.406055 1.331325,9.921545 0,1.7751 -0.0634,3.13812 -0.0317,1.33133 -0.0951,2.47246 -0.0634,1.14114 -0.126793,2.69435 -0.0317,1.55321 -0.0317,2.40907 v 1.7117 q -0.0951,9.09739 -0.158491,11.82344 -0.0634,2.69434 -0.570568,6.84681 -0.475473,4.12077 -1.743402,8.14644 -1.267929,4.02568 -3.581899,7.51248 z m -1.29963,-0.91925 H 68.286189 q 1.42642,-2.44076 2.472461,-5.80077 1.046041,-3.39171 1.616609,-8.8438 0.570568,-5.4838 0.570568,-13.53514 v -3.10643 q 0,-2.72605 0.221888,-8.27323 0.221887,-5.54719 0.221887,-8.14645 0,-5.230203 -1.077739,-8.748705 -1.07774,-3.518503 -4.08907,-6.624928 h 31.539728 q -2.250574,2.409064 -2.916236,7.670969 -0.665663,5.261904 -0.665663,13.408344 v 5.70568 3.32832 l -0.0634,26.08763 q 1.331325,0.31698 2.472461,0.31698 3.708697,0 7.005307,-1.93359 5.00832,-4.37435 8.30494,-9.54116 3.29661,-5.16681 4.88152,-11.63325 1.10944,2.12378 2.31397,6.33964 1.23623,4.21587 2.31397,9.28758 1.07774,5.04002 1.7434,8.74871 0.69737,3.70869 0.88755,5.2936 z m -2.72604,-2.91623 q -1.26793,-8.49513 -4.27926,-18.82875 -0.98265,1.42642 -3.07473,4.97663 -2.09208,3.5502 -3.86718,5.92756 -1.7751,2.37737 -4.31096,4.21587 -2.53586,1.83849 -5.89587,2.53585 -2.789442,0.1268 -9.065689,0.1268 l -0.0634,-56.86661 H 76.46433 l -0.0634,57.84925 z m -44.789586,-0.82416 -0.443775,-1.36302 q -0.316982,-1.10944 -0.316982,-1.90189 0,-1.23623 0.316982,-2.02869 0.34868,-0.79245 1.489816,-3.04303 0.126793,-0.12679 0.253586,-0.12679 0.316982,0 0.665662,0.47547 0.348681,0.44378 0.443776,0.69736 -1.172835,1.9019 -1.172835,4.27926 0,0.88755 0.19019,1.55322 2.345668,0.34868 4.691336,0.34868 2.250574,0 4.596242,-0.34868 0.253586,-0.19019 0.253586,-0.50718 -0.53887,-2.40906 -2.979633,-4.02567 0,-0.22189 0.19019,-0.41208 0.221887,-0.22188 0.253585,-0.28528 0.0951,-0.22189 0.602266,-0.22189 0.348681,0.0634 1.046042,0.66566 0.697361,0.57057 1.014343,0.85586 1.7751,2.12378 1.7751,4.15246 0,0.69736 -0.253586,1.23623 z m 31.095956,-0.28528 -1.29963,-0.38038 q 2.53586,-3.04303 3.89888,-4.34266 0.19019,-0.0951 0.50717,-0.34868 0.31698,-0.25358 0.50717,-0.38037 0.22189,-0.1268 0.41208,-0.1268 0.22189,0 0.47547,0.19019 v 0.66566 l -2.88453,2.66266 q -0.25359,0.34868 -0.25359,0.44377 0,0.0951 0.72906,0.19019 1.26793,0 2.37737,-0.34868 1.14113,-0.38038 1.93359,-0.88755 0.82415,-0.53887 1.90189,-1.36302 0.66566,0.28528 0.66566,0.53887 0,0.0634 -0.12679,0.44377 -1.7751,3.04303 -8.8438,3.04303 z m 9.95324,-0.19019 q -0.22189,-0.12679 -1.01434,-0.34868 -0.76076,-0.22189 -0.76076,-0.63396 l 0.91925,-0.57057 q 0.47547,0 0.85585,0.25358 1.14113,0 1.42642,-0.38038 -0.15849,-1.17283 -1.14114,-1.87019 -0.98264,-0.69736 -2.63095,-1.42642 0,-0.76076 0.0634,-0.88755 0.0634,-0.12679 0.44377,-0.34868 2.31397,0.82415 3.45511,2.37737 0.95094,1.80679 0.95094,2.53585 0,0.50717 -0.19019,0.79246 -0.69736,0.50717 -2.37736,0.50717 z m -35.977481,-1.68001 q -0.190189,-0.0634 -0.697361,-0.22188 -0.475473,-0.15849 -0.475473,-0.50717 0,-1.8385 0.697361,-3.16983 0.729059,-1.36302 1.7751,-2.53585 1.046041,-1.17284 2.472461,-2.78945 -0.158491,-0.69736 -0.982645,-0.69736 l -2.599254,1.23623 q -0.158491,-0.19019 -0.507171,-0.38038 -0.316982,-0.19019 -0.412077,-0.34868 -0.0634,-0.15849 -0.0634,-0.50717 0.919248,-0.44377 1.870194,-0.95094 0.982645,-0.50718 1.775101,-0.79246 0.792455,-0.28528 1.299627,-0.28528 0.412077,0 0.855852,0.19019 0.221887,0.34868 0.380378,0.85585 0.19019,0.57057 0.19019,1.17283 0,1.26793 -0.602267,2.09208 -0.570567,0.82416 -2.12378,2.40907 -1.553213,1.58491 -2.060385,2.63095 0,0.98265 0.380379,0.98265 l 2.599254,-0.1268 q 0.443775,0.60227 0.443775,0.76076 -0.792455,0.63396 -1.806798,0.82415 -0.982645,0.15849 -2.409065,0.15849 z m 32.649171,-1.80679 q -0.31699,0.31698 -0.85586,0.31698 -0.22188,-0.31698 -0.28528,-0.91925 -0.0634,-0.63396 -0.15849,-0.88755 0,-2.18718 0.53887,-4.24756 0.53887,-2.06039 1.36302,-3.70869 0.82415,-1.68001 1.93359,-3.10643 1.29963,3.01133 1.29963,6.30795 0,1.96529 -0.50717,3.23322 -0.60227,-0.28529 -0.66566,-0.69737 l -0.19019,-4.34265 h -0.50718 q -1.14113,1.29963 -1.55321,3.39171 -0.41207,2.09208 -0.41207,4.65964 z M 90.855321,142.3878 q -0.380378,0.19019 -0.443775,0.19019 -0.0317,0 -0.253586,-0.38038 -0.221887,-0.41208 -0.665662,-0.91925 0.53887,-1.90189 0.602266,-3.10642 0,-2.97963 -0.855852,-5.16681 -0.824154,-2.18718 -2.282272,-3.39171 -0.253585,-0.69736 -0.253585,-1.17284 0,-0.72905 0.665662,-0.72905 1.014343,0.44377 1.648308,1.29962 0.633964,0.82416 1.7751,2.72605 1.109438,2.75774 1.109438,5.83247 0,2.94794 -1.046042,4.81813 z m -6.878513,-2.78944 q -0.570568,0.50717 -0.792456,0.72906 -0.190189,0.19019 -0.443775,0.44377 -1.584911,-1.26793 -2.472461,-2.12378 -0.88755,-0.88755 -1.584911,-2.06038 -0.697361,-1.20454 -0.919248,-2.75775 -0.126793,-1.20453 -0.126793,-1.8385 0,-1.87019 0.570568,-3.67699 0.570568,-1.8385 1.743402,-3.07473 0.88755,0.57057 1.23623,1.04605 -1.680005,1.83849 -1.933591,4.69133 0,1.9019 0.697361,3.48681 0.697361,1.55321 1.711704,2.72604 1.046041,1.17284 2.31397,2.40907 z m 3.328313,-7.00531 q -2.789444,1.93359 -4.27926,1.93359 -0.633964,0 -0.982645,-0.25358 -0.190189,-0.95095 -0.190189,-1.8068 0,-1.39472 0.507171,-2.40907 0.53887,-1.01434 1.553213,-2.18717 1.046041,-1.20454 1.616609,-2.06039 0.602267,-0.85585 0.855852,-2.18718 0,-0.63396 -0.380378,-0.63396 l -1.775101,0.63396 -0.69736,-0.91924 q 1.933591,-1.36303 3.233218,-1.36303 0.475473,0 0.729059,0.22189 0.0951,0.12679 0.158491,0.28528 0.0951,0.1585 0.158491,0.41208 0.19019,0.66566 0.19019,1.29963 0,1.14113 -0.570568,2.15548 -0.570568,1.01434 -1.61661,2.28227 -1.014343,1.26793 -1.584911,2.31397 -0.570568,1.04604 -0.570568,2.15548 0.126793,0.25358 0.316983,0.25358 0.158491,0 0.602266,-0.22188 0.475473,-0.25359 0.919248,-0.47548 0.443775,-0.25358 0.760757,-0.41207 0.348681,-0.19019 0.697361,-0.25359 0.348681,0.31698 0.348681,1.23623 z m 3.835484,-3.26492 q -0.09509,0.0317 -0.190189,0.0634 -0.0634,0.0317 -0.158491,0.0634 -0.158491,-0.22189 -0.53887,-0.44378 -0.34868,-0.25358 -0.412077,-0.44377 0.19019,-1.07774 0.19019,-2.15548 0,-5.64228 -4.564544,-10.7774 0.190189,-0.79245 0.982645,-0.98264 0.538869,0.44377 1.267929,1.29963 0.760757,0.85585 1.7751,2.02868 1.046041,1.52152 1.584911,3.5185 0.570568,1.96529 0.570568,4.08907 0,2.18718 -0.507172,3.74039 z m -6.910212,-4.08907 q -0.0634,0.76076 -0.950946,0.98265 -1.711704,-1.36302 -2.757745,-2.44076 -1.046042,-1.07774 -1.901893,-2.50416 -0.855852,-1.45812 -1.204533,-3.04303 0,-2.15548 0.53887,-4.08907 0.53887,-1.96529 1.616609,-2.72605 0.792456,0.53887 0.792456,1.29963 -0.0951,0.22188 -0.253586,0.50717 -0.126793,0.25358 -0.253586,0.44377 -0.0951,0.1585 -0.285284,0.47548 -0.253586,0.98264 -0.253586,2.28227 0,2.02869 0.792456,3.83548 0.792455,1.7751 2.31397,2.97964 0.253586,0.38037 0.855852,1.01434 0.602266,0.60227 0.950946,0.98264 z m -1.806798,-5.10341 q -0.380379,-0.15849 -0.507172,-0.28528 -0.09509,-0.15849 -0.190189,-0.57057 -0.158491,-0.79246 -0.158491,-0.98265 0,-1.36302 0.729059,-2.50416 0.729059,-1.17283 2.060384,-2.59925 1.363024,-1.45812 1.96529,-2.53586 0.380379,-1.42642 0.380379,-1.96529 0,-0.60226 -0.380379,-0.79245 -0.824154,0.31698 -1.267929,0.60226 -0.443775,0.28529 -0.824154,0.91925 -0.475473,-0.22188 -0.855852,-0.66566 -0.34868,-0.44378 -0.443775,-0.85585 2.028686,-1.42642 4.437751,-1.42642 0.380379,0.41208 0.824154,1.52151 0.126793,0.76076 0.126793,1.01435 0,1.01434 -0.412077,1.90189 -0.412077,0.88755 -1.07774,1.64831 -0.633964,0.72906 -1.806798,1.83849 -0.221888,0.31699 -0.570568,0.85585 -0.34868,0.50718 -0.570568,1.01435 -0.221888,0.50717 -0.221888,0.98264 0,0.47548 0.126793,0.72906 0.285284,0.19019 0.665663,0.19019 0.0317,0 0.507171,-0.0951 0.507172,-0.0951 0.792456,-0.0951 0.760757,0.38038 0.760757,0.98265 -1.553213,1.01434 -4.08907,1.17283 z m 7.544176,-3.64529 q -0.697361,-0.28529 -0.982645,-0.85586 0,-0.28528 0.0951,-0.63396 0.0951,-0.38038 0.285284,-0.85585 0.190189,-0.50717 0.412077,-1.17284 0.253586,-1.39472 0.253586,-1.99698 0,-4.62794 -4.691337,-8.65362 0.824154,-1.01434 1.236231,-1.01434 0.824153,0.69736 1.394721,1.23623 0.602266,0.53887 1.236231,1.20453 0.633964,0.63397 1.141136,1.39472 0.538869,0.72906 0.792455,1.48982 0.697361,1.48982 0.697361,3.5502 0,3.6136 -1.870195,6.30795 z m -6.878514,-3.32832 q -0.0317,0 -0.09509,0.0317 -0.0317,0 -0.0634,0.0317 -1.489816,-1.14114 -2.440763,-2.34567 -0.919248,-1.23623 -2.218875,-3.5502 -0.633964,-2.15548 -0.633964,-4.02567 0,-2.59926 1.141136,-4.406056 1.046041,0.412077 1.42642,1.046041 0,0.126795 -0.158492,0.602265 -0.158491,0.44378 -0.158491,0.53887 -0.253585,0.98265 -0.253585,2.02869 0,2.44076 1.363023,4.53284 1.363023,2.09208 3.518502,4.08907 z m -0.285283,-7.1321 h -0.316983 q -0.34868,-0.25358 -0.443775,-1.10943 0,-1.23624 0.285284,-2.12379 0.285284,-0.88755 0.760757,-1.6483 0.475474,-0.79246 1.267929,-1.901896 0.792456,-1.109438 0.982645,-1.458118 0,-0.760757 -0.0634,-0.950947 -0.0634,-0.221887 -0.316983,-0.221887 -0.665662,0 -1.870195,0.53887 -0.443775,-0.221888 -0.729059,-0.380379 -0.285284,-0.158491 -0.475473,-0.316982 -0.158491,-0.190189 -0.158491,-0.475473 1.521515,-0.855852 3.486804,-0.855852 1.172834,0 2.092083,0.380378 0.253585,0.633965 0.253585,1.236231 0,0.950946 -0.507171,1.743402 -0.475473,0.792455 -1.521515,1.996983 -1.014343,1.17284 -1.299627,1.64831 -0.760757,1.26793 -0.760757,1.9019 0,0.31698 0.126793,0.44377 0.507172,0 1.680006,-0.50717 0.855852,0.34868 0.855852,0.95095 -1.394722,0.98264 -3.328313,1.10943 z m 7.037004,-4.02567 q -0.09509,0 -0.285284,-0.0951 -0.190189,-0.0951 -0.412077,-0.28528 -0.190189,-0.19019 -0.285284,-0.25359 0.0634,-0.85585 0.53887,-2.567551 0.507172,-1.711704 0.507172,-2.630952 0,-1.07774 -0.53887,-1.743402 l -9.414371,0.0634 v 0.507172 q 0.253586,1.141136 1.616609,2.31397 1.394722,1.172834 1.711704,1.711704 -0.0634,0.316982 -0.316982,0.602266 -0.253586,0.253586 -0.53887,0.316982 Q 81.757932,99.658605 81.155666,99.278226 80.5534,98.86615 79.792643,98.168789 79.063584,97.471428 78.397921,96.805765 77.16169,94.967269 77.16169,93.50915 q 0,-0.665662 0.253586,-1.172834 h 13.852122 q 0.253586,1.394722 0.253586,3.043029 0,3.867183 -1.680006,6.624925 z" style="font-variant-ligatures:normal;font-variant-caps:normal;font-variant-numeric:normal;font-feature-settings:normal;text-align:center;writing-mode:lr-tb;text-anchor:middle;fill:#ffffff;stroke-width:1.622949" id="path3778" inkscape:connector-curvature="0"/> <path d="M 207.40967,153.22859 H 184.61865 L 178.4058,137.0625 q -2.18717,0.31698 -4.08907,1.10944 -1.87019,0.79245 -3.07472,2.12378 3.5185,3.96228 4.88152,8.27323 0.57057,1.8385 0.57057,3.04303 0,0.98265 -0.44378,1.61661 h -14.42269 q -0.31698,0 -0.31698,-0.91925 0.34868,-2.53585 1.10944,-4.43775 0.76076,-1.90189 1.93359,-3.93058 1.17284,-2.02868 2.15548,-3.70869 -1.36302,-0.85585 -2.47246,-1.55321 -1.10944,-0.69736 -2.44076,-1.20453 -1.29963,-0.53887 -2.69435,-0.53887 l -5.95927,16.29288 H 130.3513 q 1.68001,-4.94492 3.36001,-9.44607 1.68001,-4.50114 4.84983,-12.86947 3.20152,-8.40003 5.26191,-13.97892 2.06038,-5.61058 3.5502,-9.92154 0.44377,-1.9019 0.44377,-4.34266 0,-2.50416 -0.50717,-5.13511 -0.47547,-2.66265 -1.29963,-5.103413 -0.82415,-2.440763 -1.7117,-4.120769 h 47.9911 q -2.02868,4.691337 -2.02868,10.270224 0,5.800778 1.83849,11.981928 1.8385,6.18115 6.08606,16.48307 4.27926,10.30192 6.21285,15.40534 1.96529,5.10341 3.01133,10.77739 z m -0.79245,-0.79245 q -1.07774,-5.61059 -3.13813,-10.84079 -2.06038,-5.26191 -6.18115,-14.92987 -4.12077,-9.69965 -5.95926,-15.84911 -1.8385,-6.18115 -1.8385,-11.981923 0,-5.008318 1.61661,-9.541164 h -45.45525 q 1.01435,2.757745 1.64831,4.913224 0.63396,2.123781 0.95095,4.152467 0.31698,1.996986 0.31698,3.645296 0,5.23021 -3.23322,12.20381 -1.33132,3.86719 -3.10643,8.65362 -1.7751,4.75473 -4.46944,11.98192 -2.69435,7.2272 -3.74039,10.01664 -1.01435,2.75775 -2.69435,7.57588 h 21.2695 l 6.30795,-16.29289 q 3.5185,0 8.11474,3.32831 0.72906,-0.88755 0.98265,-1.04604 -0.79246,-1.14113 -1.8702,-1.7434 -1.07774,-0.60226 -4.05737,-1.96529 -0.63396,-0.12679 -1.14114,-0.19019 -0.47547,-0.0634 -0.85585,-0.19019 -0.38038,-0.15849 -0.72906,-0.63396 0,-0.28529 0.15849,-0.34868 h 17.9095 q -5.51549,2.18718 -9.60456,7.037 -4.08907,4.81813 -5.3887,11.09438 0,0.88755 0.12679,0.95095 h 13.50345 q 0.12679,-0.76076 0.12679,-1.01435 0,-1.20453 -0.41208,-2.34566 -0.38038,-1.14114 -0.98264,-2.25058 -0.57057,-1.10944 -1.20454,-2.34567 -1.7434,-2.88453 -3.04303,-3.64529 -0.88755,0.79245 -1.04604,1.10944 2.02869,2.72604 2.94794,4.53284 0.95094,1.7751 1.26793,4.21586 h -9.35098 q 0.76076,-5.2619 5.26191,-10.11173 2.37736,-1.87019 4.59624,-3.04303 2.21887,-1.17283 4.75473,-1.17283 l 5.89587,16.071 z m -4.72304,-2.78945 H 187.3447 L 168.64275,99.721997 150.60646,149.64669 H 135.6766 l 21.428,-57.500567 h 23.29819 z m -10.84079,-0.95094 q 1.29963,0 2.75775,0 1.45812,-0.0317 2.72604,-0.22189 1.29963,-0.19019 2.37737,-0.69736 0.31698,-0.85585 0.31698,-1.55321 0,-1.07774 -0.47547,-2.18718 -0.47547,-1.10944 -1.20453,-2.44076 -1.52152,-1.9019 -2.63095,-2.85284 -1.07774,-0.95095 -2.37737,-1.10944 -0.57057,0.41207 -0.57057,1.7117 2.15548,1.04604 3.5185,2.50416 1.36303,1.42642 1.93359,3.83549 0,0.25358 -0.15849,0.47547 -1.39472,0.88755 -3.93058,0.88755 h -2.53585 q -0.38038,-0.0634 -0.85585,-1.14114 l -1.36303,-0.53887 q -0.0951,0.1268 -0.0951,0.15849 0,0 -0.0951,0.1585 -0.19019,0.41207 -0.19019,0.79245 0,0.31698 0.19019,0.85585 0.25359,0.82416 0.79246,1.01435 0.57057,0.19019 1.87019,0.34868 z m -46.81827,-0.1268 q 1.68001,0 2.69435,-0.12679 1.01434,-0.12679 2.06039,-0.60227 0.69736,-1.04604 0.69736,-1.55321 0,-0.28528 -0.19019,-0.72906 l -1.29963,0.0634 q -0.15849,0.0634 -0.47547,0.60227 -0.28529,0.53887 -0.63397,0.63396 h -1.99699 q -2.85284,0 -4.34265,-0.69736 -0.12679,-0.25359 -0.12679,-0.79246 0,-0.63396 0.53887,-1.68 0.53887,-1.04604 0.66566,-1.55321 0.53887,-0.79246 1.14113,-1.23624 0.60227,-0.44377 1.42642,-0.85585 0.85586,-0.44377 1.55322,-0.82415 l -0.28529,-1.58491 q -0.95094,0 -1.7434,0.44377 -0.79245,0.41208 -1.7434,1.14114 -1.61661,1.8385 -2.50416,3.64529 -0.88755,1.7751 -1.07774,4.12077 0.22189,0.44378 0.38038,0.79246 0.79245,0.31698 1.7117,0.50717 0.91925,0.15849 1.8068,0.22189 0.88755,0.0317 1.7434,0.0634 z m 45.70884,-3.64529 q 0.63396,0.12679 0.91924,0.12679 1.14114,0 2.18718,-0.66566 1.04604,-0.69736 1.58491,-1.99699 0,-0.69736 -0.91925,-0.85585 -1.6483,1.7751 -3.32831,1.7751 -1.10944,-0.44378 -1.64831,-0.79246 -0.50717,-0.38037 -0.95094,-1.23623 -0.0951,-0.50717 -0.0951,-1.29962 0,-0.79246 -0.0951,-1.17284 l -0.82416,-0.50717 q -0.41207,0.38038 -0.41207,1.29963 0,0.22189 0.0634,0.60226 0.0634,0.38038 0.0951,0.79246 0.0634,0.38038 0.0634,0.60227 0.34868,1.14113 0.95095,1.96528 0.91925,1.04605 2.40907,1.36303 z m -43.55336,-0.12679 q 1.45812,0 2.63095,-0.44378 1.17284,-0.44377 1.71171,-1.7751 0.85585,-1.14114 0.85585,-3.96228 0,-0.31698 -0.34868,-0.31698 -0.19019,0 -0.60227,0.19019 -0.41207,0.19019 -0.47547,0.19019 0.12679,0.63396 0.12679,0.91925 0,1.42642 -0.72906,2.34567 -1.29962,1.07774 -2.72604,1.07774 -0.88755,0 -1.48982,-0.50718 -0.25359,-0.15849 -0.63396,-0.57056 -0.34868,-0.44378 -0.60227,-0.53887 -0.88755,0.53887 -0.88755,0.98264 1.10944,1.7117 3.16982,2.40907 z m 43.61675,-2.66265 h 0.66566 q 0.0951,-1.04605 0.53887,-3.10643 0.44378,-2.09208 0.63397,-3.4868 0.19019,-1.39473 0.19019,-2.94794 -0.15849,-0.47547 -0.72906,-0.47547 -0.38038,0 -0.63397,0.28528 -1.10943,0.53887 -2.53585,2.25058 0,0.72905 1.23623,0.72905 0.25358,-0.53887 1.01434,-0.98264 0.41208,0 0.41208,0.25359 l -1.23623,6.94191 q 0.0951,0.53887 0.44377,0.53887 z m -41.68316,-0.53887 -1.23623,-7.1955 q 0.19019,0 0.34868,-0.25359 l 1.14114,1.04605 1.17283,-0.53887 q -1.55321,-2.44077 -3.61359,-2.59926 -0.47548,0.15849 -0.47548,1.64831 0.19019,1.68 0.72906,4.12077 0.53887,2.40906 0.69736,3.5819 0,0.41207 0.41208,0.41207 0,0 0.34868,-0.0951 0.38038,-0.12679 0.47547,-0.12679 z m 40.82731,-3.16983 q 0.41208,-0.25358 0.41208,-1.7434 -2.31397,-1.10944 -3.77209,-2.40906 -1.45812,-1.29963 -1.99699,-3.39171 -0.41208,-1.20454 -0.41208,-2.31397 0,-0.85585 0.19019,-1.61661 -0.0951,-0.28529 -0.60226,-0.50717 -0.47548,-0.22189 -0.57057,-0.28529 -0.57057,0.57057 -0.57057,1.8702 0.0317,0.44377 0.12679,1.26793 0.1268,0.79245 0.1268,1.39472 0.31698,2.21887 1.33132,3.67699 1.01435,1.42642 2.75775,2.75775 2.12378,1.29962 2.97963,1.29962 z m -40.35183,-0.25358 q 4.24756,-1.26793 6.08605,-4.69134 1.10944,-2.91624 1.10944,-5.3887 0,-0.98264 -0.19019,-1.93359 l -1.29962,0.31698 q 0,2.69435 -0.47548,4.56455 -0.44377,1.8385 -1.87019,3.04303 -0.60227,0.53887 -1.26793,0.98264 -0.63397,0.41208 -1.33133,0.85585 -0.66566,0.44378 -1.23623,0.88755 0,1.10944 0.47548,1.36303 z m 46.34279,-2.78945 q -0.12679,-2.53585 -0.82415,-3.99397 -0.69736,-1.48982 -2.34567,-3.48681 -0.38038,-0.25358 -1.10944,-0.85585 -0.72906,-0.63396 -1.33132,-0.98264 -0.60227,-0.34868 -1.26793,-0.34868 l -0.25359,1.23623 q 2.28228,1.7751 3.80379,3.5502 1.55321,1.7751 1.90189,4.34265 0,0.41208 0.0634,1.04605 0.0634,0.60226 0.12679,1.36302 0.1268,0.15849 0.57057,0.41208 0.44378,0.22188 0.66566,0.38037 z m -51.22432,1.55322 q 0.34868,-5.4521 3.5185,-8.24154 0.38038,-0.25359 0.85585,-0.53887 0.47548,-0.31698 0.69737,-0.44377 0.22188,-0.1585 0.69736,-0.57057 0.12679,-0.1268 0.12679,-0.34868 0,-0.25359 -0.12679,-0.57057 -0.0951,-0.34868 -0.1268,-0.50717 -0.76075,0 -1.33132,0.34868 -0.57057,0.34868 -1.45812,1.10944 -0.85585,0.72905 -1.17283,0.91924 -1.45812,1.71171 -2.15548,4.05738 -0.66567,2.34566 -1.01435,5.48379 0.25359,0 0.57057,-0.19019 0.34868,-0.22189 0.91925,-0.50717 z m 46.08921,-6.24455 q 0.0634,-0.15849 0.15849,-0.34868 0.0951,-0.22189 0.15849,-0.41208 -0.0634,-0.41208 -0.25358,-0.53887 -0.19019,-0.15849 -0.69736,-0.31698 -0.22189,0.12679 -0.57057,0.91925 -0.31698,0.79245 -0.79246,0.88755 -0.41207,-0.0951 -0.79245,-0.95095 0,-0.41208 0.15849,-2.40906 0.15849,-2.02869 0.15849,-3.29662 0,-2.88454 -1.10944,-4.31096 -0.0317,-0.12679 -0.12679,-0.19019 -0.0634,-0.0634 -0.12679,-0.0634 -0.50717,0.0951 -0.85585,0.44377 -0.34869,0.34868 -0.69737,0.88755 -0.31698,0.50717 -0.76075,1.20454 0,0.50717 0.12679,0.63396 0.12679,0.12679 0.63396,0.22189 0.22189,-0.0951 0.47548,-0.66567 0.28528,-0.60226 0.69736,-0.69736 0.57057,0.57057 0.57057,1.74341 0,0.47547 -0.1268,1.39472 -0.12679,0.91925 -0.12679,1.33132 -0.25359,2.21888 -0.25359,3.29662 0,1.6483 0.38038,3.13812 0.47548,0.69736 1.04604,0.69736 0.76076,0 1.55322,-0.88755 0.82415,-0.88755 1.17283,-1.7117 z m -39.52768,2.28227 h 0.50717 q 0.63397,-0.57057 0.85586,-1.7434 0.25358,-1.17284 0.25358,-2.78945 -0.0317,-0.88755 -0.28528,-2.59925 -0.22189,-1.7117 -0.22189,-2.21888 0,-0.82415 0.19019,-1.68 0.0634,-0.0317 0.12679,-0.0951 0.0951,-0.0951 0.25359,-0.15849 l 1.36302,1.29963 0.66566,-0.47547 q -0.15849,-0.85585 -0.91924,-1.7751 -0.76076,-0.91925 -1.48982,-1.33133 -0.95095,0.69736 -1.20453,2.21888 -0.22189,1.48981 -0.22189,3.96227 0.0634,0.79246 0.12679,1.74341 0.0634,0.95094 0.0634,1.48981 0,1.23623 -0.19019,1.8068 -0.15849,0 -0.25359,0.0317 -0.0951,0 -0.15849,0.0317 -0.31698,-0.15849 -0.72906,-0.85585 -0.41207,-0.69736 -0.47547,-0.76076 -0.63396,0 -1.04604,0.66566 0.44377,2.44076 2.78944,3.23322 z m 26.8167,-1.36302 H 160.6548 l 8.17814,-24.34424 z m -1.17284,-0.79246 -7.29059,-21.3963 -7.32229,21.3963 z m 15.24685,-4.65964 q 0,-3.10642 -0.95095,-5.2619 -0.91925,-2.15548 -2.63095,-4.02568 -0.22189,-0.19019 -1.07774,-1.01434 -0.82416,-0.85585 -1.36303,-1.29963 -0.50717,-0.44377 -1.29962,-0.72905 -0.19019,0.0634 -0.25359,0.28528 -0.0317,0.19019 -0.0951,0.57057 -0.0634,0.38038 -0.1268,0.50717 1.71171,1.39472 2.94794,2.63095 1.23623,1.23623 2.21887,2.97963 0.98265,1.74341 1.20454,3.93058 v 0.50717 q 0.22188,0.41208 0.66566,0.66567 0.44377,0.25358 0.76076,0.25358 z m -43.55336,-0.91925 q 0.82416,-4.94492 3.5819,-7.57587 0.44378,-0.53887 0.79246,-0.79246 0.38037,-0.28528 1.07774,-0.76075 0.69736,-0.47548 0.91924,-0.66567 0,-1.23623 -0.28528,-1.68 -1.68001,0.53887 -3.29662,2.37737 -1.6166,1.80679 -3.04302,4.24756 -0.50718,1.14113 -0.76076,2.47246 -0.22189,1.33132 -0.22189,3.10642 0.25359,0.1268 0.31698,0.1268 0.22189,0 0.47548,-0.38038 0.25358,-0.38038 0.44377,-0.47548 z m 36.23107,0.72906 h 1.17283 q 0.12679,0 0.19019,-0.19019 0.0951,-0.19019 0.0951,-0.44377 0.0317,-0.28529 0.0951,-0.60227 -2.28227,-0.57057 -4.05737,-2.31397 -1.7751,-1.7751 -2.63096,-4.24756 -0.25358,-1.42642 -0.25358,-3.77209 -0.0951,-0.38038 -0.60227,-0.63396 -0.50717,-0.25359 -0.57057,-0.31698 -0.38037,0.76075 -0.38037,1.80679 0.0317,0.66567 0.28528,2.02869 0.25359,1.36302 0.28528,1.93359 0.88755,2.75775 2.37737,4.34266 1.52152,1.58491 3.99398,2.40906 z m -31.28615,-0.25358 q 1.58491,0 3.13813,-0.85585 1.58491,-0.88755 2.56755,-2.21888 0.98265,-1.61661 1.64831,-3.4868 0.69736,-1.9019 0.69736,-3.77209 0,-1.04604 -0.28528,-1.99699 -0.31698,0 -0.63397,0.28528 -0.31698,0.25359 -0.38038,0.28529 0,2.85284 -1.04604,5.3887 -1.04604,2.53585 -2.91623,3.70869 -1.61661,0.98264 -3.20152,1.36302 0,1.14114 0.41207,1.29963 z m 30.17671,-4.43775 q 1.07774,-0.72906 2.34567,-3.29662 0,-0.15849 -0.0951,-0.31698 -0.0951,-0.15849 -0.34868,-0.34868 -0.22189,-0.19019 -0.41207,-0.31698 l -0.85586,1.17283 q -0.28528,0 -0.38038,-0.19019 -0.25358,-0.76076 -0.25358,-1.7434 0,-0.66566 0.28528,-2.66265 0.28529,-1.99699 0.28529,-3.20152 0,-2.09208 -1.10944,-3.36001 -0.38038,-0.47548 -0.57057,-0.47548 -0.41208,0 -1.20453,0.44378 -0.79246,0.41208 -1.39472,1.10944 -0.57057,0.66566 -0.57057,1.39472 l 1.10944,0.95095 q 0.22188,-0.0951 0.50717,-0.79246 0.31698,-0.72906 0.76076,-0.88755 0.34868,0 0.60226,0.25359 0.19019,0.88755 0.19019,1.83849 0,0.95095 -0.25358,3.13813 -0.25359,2.18717 -0.25359,3.26491 0,2.56756 1.07774,3.96228 0.28528,0.0634 0.53887,0.0634 z m -27.13368,-0.44378 q 0.82416,-1.36302 0.82416,-3.83548 0,-1.8385 -0.44378,-4.21587 0,-0.31698 -0.19019,-1.29962 -0.19019,-0.98265 -0.19019,-1.42642 0,-1.17284 0.88755,-1.48982 0.15849,0.0634 0.38038,0.31698 0.22189,0.22189 0.41208,0.63397 0.19019,0.38038 0.38038,0.72906 0.31698,-0.0634 0.76075,-0.25359 0.47548,-0.19019 0.47548,-0.50717 -0.1268,-0.91925 -0.76076,-1.61661 -0.63396,-0.69736 -1.64831,-1.33133 -1.33132,0 -1.87019,0.88755 -0.50717,0.85586 -0.63397,3.23322 0.0317,0.69736 0.41208,2.97964 0.41208,2.25057 0.41208,3.36001 0,0.95094 -0.25359,1.55321 -0.15849,0 -0.57057,-0.60227 -0.41207,-0.60226 -0.66566,-1.20453 -0.38038,0.31698 -0.60227,0.47547 -0.22188,0.1268 -0.38037,0.31699 0.41207,1.14113 1.23623,2.44076 0.82415,1.29963 1.36302,1.29963 0.15849,-0.1268 0.31698,-0.22189 0.19019,-0.12679 0.34868,-0.22189 z m 30.77897,-6.62493 q 0,-2.47246 -0.53887,-4.81813 -0.53887,-2.37736 -1.42642,-3.61359 -1.23623,-1.71171 -2.53585,-2.69435 -1.29963,-1.01434 -3.10643,-1.71171 l -0.31698,1.55322 q 2.66265,1.36302 4.37435,3.5185 1.74341,2.12378 2.18718,5.48379 0,1.29963 0.19019,1.8385 0.47547,0.22189 0.66566,0.41208 0.22189,0.15849 0.22189,0.15849 0.12679,0 0.28528,-0.1268 z m -34.10728,-0.63396 q 0.50717,-6.49814 3.6453,-8.9072 0.25358,-0.15849 1.20453,-0.66566 0.98264,-0.53887 1.58491,-0.95095 0.19019,-0.19019 0.19019,-0.44377 0,-0.28529 -0.1268,-0.63397 -0.0951,-0.38038 -0.12679,-0.60227 -1.61661,0.22189 -2.85284,1.20454 -1.20453,0.98264 -2.85284,2.94793 -0.85585,1.64831 -1.39472,3.93058 -0.50717,2.28227 -0.50717,4.37436 0.12679,0.19018 0.19019,0.25358 0.0634,0.0634 0.0951,0.12679 0.38038,-0.22188 0.95095,-0.63396 z m 9.03399,-2.40907 q 3.32832,-2.69434 3.96228,-8.62191 v -0.79246 q -0.19019,-0.19019 -0.38038,-0.19019 -0.34868,0 -1.23623,0.98265 -0.25359,4.65964 -4.15247,7.63927 -0.50717,0.25359 -1.29962,0.88755 -0.79246,0.60227 -1.29963,0.95095 -0.25359,0.15849 -0.25359,0.63396 0,0.53887 0.25359,1.04604 0.44377,0 1.96529,-0.95094 1.52151,-0.95095 2.44076,-1.58492 z m 19.01893,2.59926 q 0.22189,0 0.28529,-0.12679 0.0951,-0.1268 0.12679,-0.34868 0.0317,-0.25359 0.0951,-0.76076 -0.34868,-0.34868 -2.34567,-1.8702 -1.96529,-1.52151 -3.01133,-2.82114 -1.01435,-1.33132 -1.52152,-3.29661 -0.0317,-0.38038 -0.0951,-0.60227 -0.0317,-0.25359 -0.0951,-0.60227 -0.0634,-0.38037 -0.0634,-0.60226 -0.53887,-0.79246 -1.42642,-1.17284 -0.1268,0.76076 -0.1268,1.17284 0,1.55321 0.53887,3.20152 0.53887,1.61661 1.26793,2.82114 0.69736,0.98264 1.33133,1.61661 0.63396,0.60227 1.48981,1.23623 0.88755,0.60227 1.71171,1.07774 0.82415,0.44377 1.83849,1.07774 z m -1.55321,-6.56153 q 0.19019,-0.38038 0.38038,-0.72906 0.19019,-0.38038 0.28528,-0.72906 0.1268,-0.38038 0.1268,-0.95095 -0.28529,-0.19019 -0.41208,-0.25358 l -0.69736,0.91925 q -0.15849,0 -0.44378,-0.28529 -0.25358,-0.31698 -0.34868,-0.63396 0,-0.63397 0.28529,-2.85284 0.31698,-2.218878 0.31698,-3.26492 0,-1.616609 -0.60227,-2.852839 -0.47547,-0.380379 -1.17283,-0.380379 -0.98265,0 -1.61661,0.602266 -1.01434,0.665663 -1.8068,2.250574 0.0317,0.158491 0.0951,0.285284 0.0951,0.126793 0.22188,0.221887 0.1268,0.0951 0.31699,0.221888 0.28528,-0.0317 1.01434,-0.729059 0.72906,-0.697361 1.45812,-0.697361 0.22188,0.34868 0.50717,0.443775 0,1.584911 -0.22189,3.550204 -0.22189,1.93359 -0.22189,2.34566 0,1.8385 0.91925,2.78945 0.60227,0.98264 1.17284,0.98264 0.28528,0 0.44377,-0.25358 z m -19.87478,0 q 0.98264,0 1.55321,-1.17284 0.60227,-1.07774 0.60227,-2.47246 0,-0.95094 -0.28529,-2.69435 -0.25358,-1.743399 -0.25358,-3.074724 0.19019,-0.570568 1.17283,-0.570568 0.47547,0.0634 0.79246,0.507172 0.31698,0.412076 0.76075,0.919248 l 0.85586,-0.53887 q 0,-0.126793 0.0634,-0.158491 0.0634,-0.0317 0.0634,-0.158491 -1.58491,-2.66265 -3.77209,-2.66265 -0.15849,0.0634 -0.34868,0.126792 -0.15849,0.0317 -0.22189,0.0634 -0.85585,0.88755 -0.85585,2.789443 0.0317,0.570568 0.15849,1.743402 0.12679,1.172827 0.12679,1.711697 0.0317,0.44378 0.1268,1.10944 0.12679,0.66566 0.12679,1.23623 0,0.82416 -0.25359,1.07774 -0.34868,0.28529 -0.41207,0.28529 -0.15849,-0.1268 -0.28529,-0.38038 -0.12679,-0.25359 -0.28528,-0.41208 l -0.66566,0.31698 1.10943,2.40907 z m 3.20152,-4.94493 q 1.7117,-0.69736 3.20152,-1.93359 1.48981,-1.267925 2.31397,-3.043025 0.57057,-1.07774 0.57057,-2.472462 0,-1.109437 -0.50718,-1.838496 l -9.16078,0.09509 q -1.14114,0.88755 -1.7117,2.662651 -0.57057,1.743402 -0.57057,3.803786 0.0317,0.348681 0.0317,0.633966 0.0317,0.25359 0.0317,0.66567 0.0951,0.34868 0.28529,0.34868 0.12679,0 0.34868,-0.19019 0.22189,-0.19019 0.34868,-0.22189 0.12679,-4.501152 2.02868,-6.212856 1.23624,-0.475474 3.16983,-0.475474 1.58491,0 3.16982,0.19019 0.47547,0.09509 0.79245,0.855852 0,1.680005 -1.17283,2.979632 -1.8068,1.711704 -3.70869,2.599256 l 0.25358,1.36303 q 0.15849,0 0.28529,0.19018 z m 12.77438,0 q 0.12679,0.1268 0.31698,0.1268 0.0951,0 0.19019,-0.15849 0.0951,-0.15849 0.12679,-0.28529 0.0634,-0.12679 0.1585,-0.44377 0.0951,-0.31698 0.19019,-0.47548 -0.1268,-0.0951 -1.71171,-1.046037 -1.55321,-0.982645 -2.31397,-1.838497 -0.76076,-0.855851 -1.10944,-2.155478 0,-0.982645 0.19019,-1.172835 1.58491,-0.729059 3.83549,-0.729059 1.8068,0 3.10642,0.475474 1.01435,0.950946 1.55322,2.599254 0.53887,1.616609 0.53887,3.423408 0,0.15849 0.31698,0.44377 0.31698,0.28529 0.50717,0.28529 0.19019,0 0.28528,-0.28529 0,-5.452089 -1.90189,-7.449077 -0.60227,-0.855852 -4.78643,-0.855852 h -2.34567 q -1.7434,0 -2.21887,0.126793 -0.63397,0.507171 -0.63397,1.648307 0,0.665663 0.31698,2.567556 1.36303,3.106423 5.3887,5.198503 z" style="font-variant-ligatures:normal;font-variant-caps:normal;font-variant-numeric:normal;font-feature-settings:normal;text-align:center;writing-mode:lr-tb;text-anchor:middle;fill:#ffffff;stroke-width:1.622949" id="path3780" inkscape:connector-curvature="0"/> <path d="m 259.55326,99.405015 q -1.23623,0 -2.34567,-0.380378 -0.98265,-0.697361 -2.85284,-2.31397 -1.8702,-1.61661 -3.13813,-2.630953 -1.23623,-1.046041 -2.31397,-1.680005 1.99699,0 3.74039,0.221887 1.74341,0.19019 3.5819,0.507172 1.96529,0.697361 3.16983,1.204532 1.20453,0.507172 2.28227,1.363024 1.10943,0.855851 1.7117,2.092082 -0.34868,0.0634 -0.72906,0.0634 -2.82114,-2.630952 -5.70568,-3.518502 -2.59925,-0.507171 -3.5185,-0.507171 -0.25359,0.190189 -0.25359,0.443775 0.69737,0.538869 1.8702,1.711704 1.20453,1.141135 2.12378,1.711703 0.91925,0.53887 2.31397,0.665663 0.0317,0.190189 0.12679,0.380379 0.1268,0.158491 0.1268,0.34868 0,0.126793 -0.19019,0.316982 z m -24.59782,2.979635 q -0.22189,0.22189 -0.41208,0.22189 -0.25358,0 -0.53887,-0.44378 -0.25358,-0.47547 -0.28528,-0.72906 0.95094,-3.043028 0.95094,-4.501146 0,-1.046041 -0.25358,-1.806798 h -8.9389 q -0.28528,0.09509 -0.28528,0.380378 0.28528,0.855852 0.76075,1.42642 0.50718,0.570568 1.17284,1.172834 0.66566,0.570568 1.52151,1.299627 -0.31698,0.919245 -1.17283,0.919245 -1.58491,-0.855848 -3.6453,-2.726043 -1.17283,-1.743402 -1.17283,-3.264917 0,-0.602266 0.22189,-1.141136 h 13.21815 q 0.28529,1.141136 0.28529,2.789444 -0.0951,3.613597 -1.42642,6.403042 z m -3.96228,3.01133 q -1.39472,0.41208 -1.93359,0.72906 -0.50717,0.28528 -0.53887,0.28528 0.0317,0 -0.53887,-0.12679 -0.25359,-0.25359 -0.57057,-0.88755 -0.12679,-0.69736 -0.12679,-1.04604 0,-2.15548 2.40906,-4.691339 0.76076,-1.077739 0.76076,-1.616609 0,-0.475473 -0.25358,-0.824154 -0.31699,-0.158491 -0.91925,-0.158491 h -1.99699 q -0.31698,-0.221888 -0.31698,-0.380379 0,-0.158491 0.31698,-0.633964 0.63396,-0.126793 1.93359,-0.126793 2.59925,0.158491 3.13812,0.253586 0.1268,0.760757 0.1268,1.046041 0,1.172834 -0.44378,1.870195 -0.41207,0.697361 -1.7434,2.345667 -1.29963,1.61661 -1.58491,2.59926 0.22189,0.38037 0.63396,0.50717 l 0.85586,-0.38038 q 0.53887,0.22189 0.66566,0.44377 0.12679,0.19019 0.12679,0.79246 z m -1.36302,6.21285 q -0.0317,0.12679 -0.60227,0.69736 -0.57057,0.57057 -0.91925,0.79246 -1.61661,-1.29963 -2.66265,-2.75775 -1.01434,-1.48982 -2.06038,-3.80379 -0.31698,-2.69434 -0.31698,-3.4868 0,-2.59925 1.17283,-3.772088 1.23623,0.919248 1.23623,1.489818 -0.47547,1.17283 -0.47547,3.77209 0.34868,2.06038 1.45812,3.64529 1.10943,1.55321 3.16982,3.42341 z m 5.10341,4.69134 q -0.0951,0.19019 -0.25359,0.19019 -0.15849,0 -0.38037,-0.53887 -0.22189,-0.57057 -0.31699,-0.95095 1.01435,-2.53586 1.01435,-5.00832 -0.15849,-2.31397 -1.14114,-3.74039 -0.98264,-1.42642 -3.07473,-3.64529 l 1.04605,-0.91925 q 2.47246,1.7751 4.27925,4.84982 0.72906,1.48982 0.72906,3.51851 0,3.5819 -1.90189,6.24455 z m -7.00531,3.4234 q -0.57056,0 -0.79245,-0.28528 -0.19019,-0.28528 -0.19019,-0.95095 0,-1.48981 0.53887,-2.44076 0.57057,-0.98264 1.87019,-2.40906 1.29963,-1.45812 1.8385,-2.28228 0.53887,-0.85585 0.63397,-2.06038 -0.1585,-0.19019 -0.22189,-0.34868 -0.0634,-0.15849 -0.15849,-0.25359 -0.0951,-0.12679 -0.25359,-0.12679 l -1.90189,0.72906 -1.10944,-1.39472 q 2.63095,-1.26793 3.77209,-1.26793 0.28528,0 0.79245,0.12679 0.76076,0.85585 0.76076,2.12378 0,0.95095 -0.38038,1.7751 -0.69736,1.29963 -1.90189,2.72605 -1.20453,1.39472 -1.7117,2.12378 -0.50718,0.72906 -0.85586,2.09208 0.0634,0.38038 0.19019,0.50717 0.1268,0.1268 0.63397,0.1268 0.15849,-0.0317 0.72906,-0.31698 0.60226,-0.31699 0.82415,-0.31699 0.15849,0 0.28528,0.1268 0.25359,0.25358 0.25359,0.95094 -0.85585,0.47548 -1.96529,0.76076 -1.07774,0.28528 -1.68001,0.28528 z m 1.42642,4.75474 q 0.19019,0.0951 0.19019,0.25358 0,0.25359 -0.41207,0.57057 -0.41208,0.28528 -0.72906,0.28528 -1.58491,-1.52151 -2.53586,-2.50415 -0.95095,-0.98265 -1.7751,-2.28228 -0.82415,-1.29962 -1.17283,-2.88453 0,-2.18718 0.57056,-3.96228 0.57057,-1.7751 1.45812,-2.59926 0.19019,0 0.63397,0.44378 0.15849,0.22189 0.15849,0.66566 0,0.82416 -0.53887,1.36303 -0.44378,0.98264 -0.44378,2.34566 0,2.85284 1.7434,5.4521 z m 6.62493,4.21586 q -0.12679,0.12679 -0.25358,0.12679 -0.22189,0 -0.57057,-0.47547 -0.34868,-0.50717 -0.41208,-0.69736 0.25359,-1.01434 0.25359,-2.34567 0,-4.34266 -4.27926,-9.79475 0.0317,-0.34868 0.31698,-0.63396 0.28528,-0.31699 0.53887,-0.34868 0.95095,0.44377 2.21887,2.40906 1.39473,1.48982 2.15548,3.6136 0.76076,2.12378 0.76076,4.37435 0,1.8385 -0.72906,3.77209 z m -8.30493,4.84983 q -0.47547,-0.47548 -0.57057,-1.36303 0.25359,-2.12378 1.07774,-3.64529 0.82415,-1.55321 2.53586,-3.6136 0.91925,-1.26793 0.91925,-1.99699 0,-0.22188 -0.1268,-0.47547 -0.41207,0 -1.07774,0.28528 -0.66566,0.25359 -0.95094,0.25359 -0.1268,0 -0.38038,-0.12679 -0.31698,-0.38038 -0.31698,-0.60227 0,-0.28528 0.31698,-0.44377 0.41208,-0.34868 1.26793,-0.69736 0.88755,-0.34868 1.58491,-0.34868 0.34868,0 0.60226,0.12679 0.0317,0 0.19019,0.50717 0.25359,0.72906 0.25359,1.64831 0,2.25057 -1.8068,3.89888 -0.57057,0.85585 -1.04604,1.52151 -0.44378,0.66567 -0.82415,1.45812 -0.34868,0.79246 -0.34868,1.7434 0,0.1268 0.19018,0.1268 0.22189,0 0.66567,-0.19019 0.44377,-0.22189 0.98264,-0.47548 0.57057,-0.28528 1.20453,-0.57057 0.47548,0.47548 0.47548,1.04605 0,0.28528 -0.22189,0.38037 -0.44377,0.1585 -1.52151,0.63397 -1.07774,0.47547 -1.8068,0.69736 -0.69736,0.22189 -1.26793,0.22189 z m 0.44377,6.18115 q -3.83548,-1.93359 -4.65963,-6.43474 -0.31699,-0.95094 -0.31699,-2.31397 0,-1.7751 0.63397,-3.4868 0.63396,-1.7434 1.61661,-2.88454 0.25358,0.12679 0.50717,0.22189 0.28528,0.0951 0.44377,0.28528 0.15849,0.19019 0.15849,0.47547 -0.22188,0.38038 -0.57056,0.91925 -0.31699,0.50717 -0.57057,1.01435 -0.22189,0.47547 -0.34868,0.91924 -0.19019,0.85586 -0.19019,1.68001 0,2.47246 1.23623,4.78643 1.26793,2.31397 3.23322,3.6453 -0.28529,0.82415 -1.17284,1.17283 z m 7.86116,1.55321 q -0.19019,0.19019 -0.38038,0.19019 -0.0951,0 -0.31698,-0.12679 -0.22189,-0.12679 -0.34868,-0.25359 -0.12679,-0.15849 -0.25359,-0.25358 -0.0951,-0.12679 -0.19018,-0.19019 0.57056,-1.93359 0.57056,-3.89888 0,-2.56756 -0.88755,-4.78643 -0.85585,-2.25058 -2.59925,-3.99398 0.15849,-0.15849 0.38038,-0.50717 0.25358,-0.38038 0.53887,-0.50717 0.69736,0.41207 1.7117,1.68 1.01434,1.26793 1.20453,1.48982 1.48982,3.04303 1.48982,6.49813 0,2.47247 -0.91925,4.65964 z m -7.1321,4.15247 q -0.60226,-0.15849 -0.88755,-0.28528 -0.28528,-0.1585 -0.28528,-0.47548 0,-1.61661 0.66566,-2.75774 0.66566,-1.14114 1.99699,-2.63095 1.36302,-1.52152 1.87019,-2.28228 0,0.0634 -0.19019,-0.50717 -0.19018,-0.12679 -0.57056,-0.12679 -0.38038,0 -1.10944,0.28528 -0.72906,0.28529 -1.04604,0.34868 -0.63397,-0.15849 -0.91925,-0.41207 -0.25359,-0.25359 -0.25359,-0.95095 3.10643,-1.7434 4.81813,-1.7434 0.28529,0 0.85585,0.12679 0.0634,0 0.19019,0.50717 0.25359,0.95095 0.25359,1.29963 0,1.17283 -0.66566,2.12378 -0.66567,0.95095 -2.09209,2.47246 -1.42642,1.48982 -1.87019,2.28227 0,0.38038 0.0317,0.95095 0.0634,0.53887 0.25358,0.53887 1.23623,0 2.37737,-0.57057 l 0.60227,0.91925 q -1.42642,0.88755 -4.02568,0.88755 z m -4.81813,2.34567 q -0.22188,0 -0.25358,-0.0317 -0.0317,-0.0317 -0.19019,-0.25359 -0.15849,-0.25358 -0.31698,-0.44377 -0.19019,-0.66566 -0.19019,-1.42642 0,-0.82415 0.19019,-1.7434 0.0634,-0.22189 0.38037,-1.48982 0.34868,-1.29963 0.72906,-2.06038 0.38038,-0.79246 1.01435,-1.10944 0.72906,0.19019 0.98264,0.95095 -1.17283,1.7751 -1.17283,5.73737 0,0 0.47547,0.31699 0.72906,0 1.10944,0.0317 0.38038,0 0.95094,0.0317 0.60227,0.0317 1.26793,0.0951 0.69736,0.0317 1.26793,0.0317 2.53586,0 4.08907,-0.79245 0,-1.23623 -0.76075,-2.06039 -0.72906,-0.85585 -2.09209,-1.90189 0.47548,-0.85585 1.23623,-1.01434 1.8385,0.85585 3.16983,3.67699 0.44377,1.39472 0.44377,2.09208 0,0.88755 -0.57057,1.36303 z m 39.55938,-44.5994 h -0.72906 q -0.91925,-0.63396 -1.33132,-2.02868 -0.41208,-1.394724 -0.82416,-2.662653 -0.41207,-1.267929 -1.48981,-1.806799 -0.38038,-0.221887 -0.82416,-0.316982 -0.41207,-0.126793 -0.72906,-0.126793 0.1585,0.633965 0.19019,0.792456 0.0634,0.126793 0.0634,0.190189 0.0634,0 -0.0951,-0.0951 -0.1585,-0.126792 -0.22189,-0.126792 l -1.23623,-1.363024 q 2.21887,0 2.72604,0.221888 1.29963,0.380378 1.8385,1.331325 0.57057,0.919248 1.07774,2.66265 0.53887,1.711705 1.04604,2.345675 0.25359,0 0.31698,-0.66566 0.0634,-0.69736 0.22189,-0.76076 0.38038,0 0.50717,0.12679 0.19019,0.28529 0.19019,0.66566 0,0.50718 -0.22189,0.95095 -0.22188,0.41208 -0.47547,0.66566 z m 0.95095,3.36001 q -4.81813,-2.21887 -6.14946,-6.14945 0.57057,0 0.95095,0.25359 0.38038,0.76075 0.95095,1.45811 0.57056,0.69736 1.39472,1.39473 0.85585,0.69736 1.68,1.26792 0.82416,0.53887 1.58491,1.07774 0,0.25359 -0.0317,0.31699 0,0.0634 -0.1268,0.19019 -0.12679,0.0951 -0.25358,0.19018 z m 5.07171,0.22189 q -0.69736,0 -0.95094,-0.12679 -0.25359,-0.12679 -0.41208,-0.47547 -0.12679,-0.57057 -0.12679,-1.61661 -0.50718,-1.8385 -2.02869,-3.16983 -1.52151,-1.36302 -3.6136,-1.838492 l -0.0634,-0.88755 q 2.69435,0 4.65964,1.870192 2.53585,2.53586 2.53585,6.24455 z m -4.21586,6.40304 h -0.19019 q -0.72906,-1.01434 -0.72906,-2.37736 0,-1.26793 0.79246,-3.36002 0.79245,-2.09208 0.82415,-2.88453 -0.19019,-0.38038 -0.38038,-0.38038 l -1.04604,0.50717 q -0.57057,-0.22189 -0.57057,-0.63396 0.57057,-0.63397 0.85585,-0.88755 0.31699,-0.28529 0.76076,-0.28529 0.28529,0.0951 0.91925,0.69736 0.50717,0.72906 0.50717,1.71171 0,0.95094 -0.66566,2.59925 -0.66566,1.64831 -0.76076,2.25057 0,0.60227 0.0634,0.82416 0.0951,0.22188 0.38038,0.22188 0.0634,-0.0317 0.38038,-0.47547 0.31698,-0.47547 0.57056,-0.72906 0.28529,-0.28528 0.63397,-0.28528 0.31698,0.31698 0.31698,0.44377 -0.82415,1.36303 -1.45812,2.21888 -0.60226,0.82415 -1.20453,0.82415 z m 0.31698,2.78945 q -0.12679,0.53887 -0.69736,0.53887 -1.68,-1.26793 -2.59925,-2.85284 -0.60227,-1.52152 -0.60227,-3.45511 0,-2.34567 1.04604,-3.6453 0.22189,0 0.38038,0.0951 0.19019,0.0951 0.34868,0.19019 0,0.57057 -0.22189,1.01434 -0.63396,1.23623 -0.63396,2.47246 0,1.45812 0.76076,2.78945 0.79245,1.29962 2.21887,2.85284 z m 2.85284,4.31095 q -0.19019,-0.19019 -0.38038,-0.38037 -0.19019,-0.22189 -0.38038,-0.41208 0.60227,-1.55321 1.29963,-3.42341 0.69736,-1.87019 0.69736,-4.02567 -0.72906,-2.59926 -2.72604,-3.96228 0.12679,-0.44378 0.19018,-0.53887 0.0634,-0.12679 0.34868,-0.19019 0.19019,0.0317 0.34869,0.0634 0.19018,0.0317 0.53887,0.19019 1.83849,1.7434 2.40906,4.15246 0,4.56455 -2.34567,8.52682 z m -5.2619,2.25058 q -0.0951,-0.0634 -0.19019,-0.0951 -0.0951,-0.0634 -0.19019,-0.0951 -0.12679,-0.25359 -0.12679,-0.63397 0,-0.28528 0.15849,-0.69736 0.15849,-0.41207 0.31698,-0.66566 0.19019,-0.25359 0.31698,-0.44377 0.15849,-0.19019 0.50717,-0.72906 0.91925,-1.20454 2.53586,-2.66265 0.82415,-1.01435 0.82415,-1.68001 0,-0.31698 -0.19019,-0.41208 -0.0317,0 -0.47547,0.1268 -0.44377,0.12679 -0.69736,0.12679 -0.25359,0 -0.25359,-0.31698 1.42642,-1.36303 2.21888,-1.36303 0.25359,0 0.44378,0.19019 0,2.25058 -0.98265,3.6136 -0.95095,1.36302 -3.29661,3.86718 0,0.50717 0.25358,0.50717 0.19019,0 0.63397,-0.12679 0.44377,-0.12679 0.72905,-0.12679 v 0.50717 q -0.82415,0.60227 -2.53585,1.10944 z m -2.59926,2.66265 q -0.47547,0.19019 -0.76075,0.19019 0,-3.677 0.76075,-6.02266 0.41208,-0.76076 0.72906,-1.39473 0.34868,-0.66566 0.76076,-1.07774 0.41208,-0.41207 1.04604,-0.57056 0.38038,0.0634 0.47547,0.12679 0.1268,0.0317 0.1268,0.38038 -1.26793,0.98264 -1.93359,2.31397 -0.63397,1.29962 -0.85586,2.66265 -0.22188,1.36302 -0.34868,3.39171 z m -17.52911,3.20152 q -0.0634,0 -0.15849,0.0317 -0.0634,0 -0.15849,0.0317 V 95.125756 q 0.0317,0 0.31698,-0.0634 0.28528,-0.0634 0.41207,-0.0634 2.25058,0.538869 4.50115,1.711704 2.25058,1.172834 4.05737,2.852839 1.8068,1.680001 2.97964,3.486801 1.07774,1.8068 1.6483,4.15247 0.57057,2.31397 0.57057,4.59624 0,5.3887 -2.66265,9.41437 -4.56454,6.40304 -11.50645,7.1638 z m 17.87779,0.95094 q 0.0951,-0.25358 0.19019,-0.47547 0.0951,-0.25358 0.19019,-0.47547 1.61661,-1.04604 2.18718,-1.48982 0.57057,-0.44377 1.33132,-1.45812 0.72906,-0.82415 1.20454,-2.06038 0.47547,-1.23623 0.47547,-2.53586 0,-0.82415 -0.19019,-1.48981 0.44378,-0.44378 0.76076,-0.44378 0.19019,0.50717 0.19019,1.48982 0,1.17283 -0.0634,1.8068 -0.95095,4.50114 -6.27625,7.13209 z m -5.45209,0.28529 q -0.44378,0.12679 -0.41208,0.12679 -0.31698,0 -0.31698,-0.34868 0.76076,-1.14114 2.40907,-2.02869 1.6483,-0.88755 3.64529,-1.45811 0.53887,-0.1268 1.55321,-0.76076 1.01435,-0.66566 1.01435,-0.79246 l -1.42642,0.0634 q -0.19019,-0.47547 -0.19019,-0.72906 0.95094,-0.12679 1.29962,-0.12679 0.95095,0 1.36303,0.31698 0.12679,0.12679 0.12679,0.47547 -0.38038,0.95095 -1.48982,1.52152 -1.10943,0.53887 -3.13812,1.20453 -2.02869,0.63397 -2.88454,1.01434 0,0.0317 -0.31698,0.31699 -0.28528,0.25358 -0.28528,0.34868 0,0.12679 1.42642,0.12679 0,0.0634 -0.22189,0.25359 -0.22189,0.19018 -0.22189,0.25358 z m -13.24986,-0.41208 q 3.80379,-0.0317 7.10041,-1.8385 3.29661,-1.83849 5.61058,-4.97662 1.64831,-2.09208 2.59925,-4.91322 0.98265,-2.85284 0.98265,-5.67398 0,-1.36302 -0.31698,-3.10643 -0.79246,-4.05737 -3.26492,-7.25889 -2.44076,-3.233217 -5.89587,-5.13511 -4.12077,-2.409065 -6.43474,-2.409065 -0.31698,0 -0.82415,0.126793 v 35.121632 q 0.19019,0 0.44377,0.0634 z m 7.79777,2.21888 q -0.0951,-0.0317 -0.19019,-0.0634 -0.0634,-0.0317 -0.15849,-0.0634 2.78944,-2.78944 4.72303,-4.27926 1.96529,-1.48981 4.31096,-2.15547 0.19019,0.0951 0.19019,0.85585 -4.08907,1.39472 -6.49814,4.72303 0.25359,0.38038 0.41208,0.38038 2.75774,-0.31698 4.59624,-0.88755 1.8385,-0.57057 2.66265,-1.96529 0.66566,0 0.72906,0.12679 -0.41208,1.36303 -2.02869,2.15548 -3.04302,1.29963 -6.37134,1.29963 -0.85585,0 -2.37736,-0.12679 z m 10.17512,8.49512 q -0.19018,0.0634 -0.50717,0.0634 -0.31698,-0.22189 -0.85585,-0.72906 -0.50717,-0.53887 -0.95095,-0.79246 -0.41207,-0.28528 -0.98264,-0.34868 -0.60227,0 -0.98265,0.28529 -0.38037,0.28528 -0.72905,0.76075 -0.34868,0.44378 -0.63397,0.63397 -0.44377,-0.0634 -0.44377,-0.44378 0.44377,-1.07774 0.91924,-1.61661 0.47548,-0.53887 1.39473,-0.53887 1.29962,0.0634 2.37736,0.82416 1.07774,0.72906 1.39472,1.90189 z m -4.40605,0.85585 q 0,0.82416 -0.12679,0.82416 -1.99699,-0.1585 -3.42341,-1.10944 -1.39472,-0.95095 -3.07473,-2.78945 -1.6483,-1.87019 -2.21887,-2.37736 0.72906,-0.12679 2.28227,-0.12679 3.93058,0.12679 5.76908,1.48981 0,0.31698 -0.50717,0.31698 -0.19019,0 -1.55322,-0.22188 -1.36302,-0.22189 -2.09208,-0.22189 -0.12679,0.19019 -0.12679,0.82415 2.28227,3.23322 5.07171,3.39171 z m 0.85585,0.38038 q -0.15849,-0.76076 -0.28528,-2.40906 0.22189,0 0.31698,0.0317 0.1268,0 0.22189,0.0317 0.25359,0.98265 0.47547,1.9019 0.25359,0.88755 0.53887,2.12378 -0.19019,0.12679 -0.76075,0.12679 -0.1585,-0.38038 -0.28529,-0.91925 -0.12679,-0.57057 -0.22189,-0.88755 z m 7.57588,1.96529 q -0.12679,-0.34868 -0.57057,-0.66566 -0.41208,-0.34868 -0.66566,-0.50717 -0.53887,-0.19019 -2.34567,-0.28529 -1.7751,-0.12679 -2.12378,-0.19019 -0.19019,-0.0634 -0.19019,-0.31698 0,-0.34868 0.44377,-0.50717 0.63397,0.15849 1.8385,0.15849 1.23623,0 2.12378,0.22189 0.82416,0.31698 1.52152,0.91925 0.69736,0.60226 0.82415,1.36302 -0.53887,0 -0.85585,-0.19019 z m -7.0687,1.26793 q -1.20454,-0.28529 -2.18718,-0.95095 -0.95095,-0.66566 -1.07774,-1.48981 0.25358,0 0.44377,0.0317 0.22189,0 0.41208,0.0317 1.52152,1.68001 5.19851,1.68001 v 0.63396 q -0.85585,0.0634 -2.78944,0.0634 z m 4.65963,1.23623 q -0.0951,0.0634 -0.15849,0.0951 -0.0317,0.0317 -0.19019,0.0951 -0.12679,0.0317 -0.28528,0.0951 -0.0951,-0.12679 -0.12679,-0.31698 -0.0317,-0.22189 -0.1268,-0.47547 -0.12679,-1.8068 -0.28528,-2.78945 0.38038,0 0.47547,0.19019 0.22189,0.91925 0.34868,1.58491 0.15849,0.66567 0.34868,1.52152 z m -1.17283,1.48982 q -1.17283,-0.44378 -1.7434,-0.76076 -0.57057,-0.34868 -0.76076,-1.04604 0.19019,-0.19019 0.38038,-0.19019 0.41208,0.0634 1.36302,0.79245 0.91925,0.57057 2.06039,0.57057 0.98264,0 1.6483,-0.44377 0.1585,-0.28529 0.22189,-0.38038 0.0634,-0.0951 0.22189,-0.0951 0.72906,0 0.72906,0.19019 0,0.22189 -0.28529,0.60227 -1.04604,0.76076 -3.83548,0.76076 z m 5.3253,3.13812 q -2.56756,-0.76076 -3.80379,-2.28227 0.0317,-0.0317 0.25359,-0.0951 0.25359,-0.0951 0.31698,-0.15849 0.25359,0.12679 0.47548,0.22189 0.25358,0.0951 0.38037,0.22189 1.96529,1.10943 3.89888,1.10943 0.98265,0 1.74341,-0.44377 0.0634,-0.25359 0.0634,-0.53887 -0.44377,-0.95095 -1.26793,-1.61661 -0.79245,-0.66566 -1.6166,-0.98264 -0.79246,-0.34868 -1.96529,-0.69737 -1.14114,-0.38037 -2.28228,-0.72905 0.0317,-0.1268 0.0317,-0.28529 0.0317,-0.15849 0.0951,-0.34868 2.06038,0.0951 4.05737,0.95095 2.02869,0.85585 3.77209,2.15548 1.7751,1.26793 3.07472,2.72604 0,0.31699 -0.12679,0.41208 -1.7434,0.69736 -4.31096,0.69736 -1.36302,0 -2.78944,-0.31698 z m -25.04159,-18.13138 q 1.7434,0.88755 3.89888,2.75774 2.18718,1.8385 4.40605,4.18417 2.25057,2.31397 4.69134,4.97662 2.47246,2.66265 3.23322,3.42341 2.34566,2.09208 5.45209,3.39171 3.13812,1.26792 6.30794,1.26792 2.06039,0 4.21587,-0.69736 0.69736,-0.38038 1.26793,-0.69736 0.60226,-0.31698 1.04604,-0.66566 0.44377,-0.34868 0.79245,-0.98264 -1.99698,-0.53887 -3.96227,-1.9019 -1.96529,-1.36302 -4.56455,-3.70869 -2.56755,-2.37737 -4.37435,-3.86718 -1.7751,-1.52152 -3.77209,-2.40907 -0.57057,-0.28528 -3.23322,-1.33132 -2.66265,-1.04604 -3.32831,-1.20453 -4.62794,-1.29963 -4.62794,-1.68001 4.43775,0 7.73436,-0.72906 7.44909,-1.87019 12.93288,-10.11173 1.26793,-2.02869 1.83849,-4.40605 0.60227,-2.40907 0.60227,-5.13512 0,-5.45209 -2.37737,-10.27022 -1.33132,-2.409063 -3.20152,-4.279258 -1.87019,-1.870195 -4.24756,-3.264917 -2.34567,-1.42642 -5.10341,-2.250573 -1.7117,-0.475474 -3.45511,-0.665663 -1.7117,-0.221888 -3.13812,-0.285284 -1.42642,-0.0634 -3.10643,-0.0951 -1.68,-0.0634 -3.99397,-0.190189 -1.7751,0.0634 -5.00832,0.221888 -3.23322,0.158491 -5.54719,0.253585 -2.28227,0.0951 -5.48379,0.221888 -3.16982,0.0951 -5.83247,0.0951 v 57.056793 h 16.67326 V 92.843484 q 1.68001,-0.633965 3.89888,-0.633965 2.78944,0 5.3253,0.760758 5.19851,1.838496 8.84381,5.800774 1.45811,1.584909 2.56755,3.772089 1.10944,2.18718 1.68001,4.59624 0.60226,2.40907 0.60226,4.88153 0,1.93359 -0.38038,3.80378 -0.95094,4.31096 -3.64529,7.73437 -2.69435,3.42341 -6.52983,5.64228 -3.5502,2.40907 -9.09739,2.91624 z m 1.23623,2.66265 q -0.66566,4.91322 -0.66566,7.67097 0,6.37134 2.28227,9.85814 h -30.3669 q 2.69435,-4.31095 3.6136,-9.95324 0.91925,-5.64228 0.91925,-12.61589 0.12679,-6.65662 0.12679,-10.5872 0,-8.11475 -0.31698,-13.37665 -0.31698,-5.832475 -1.26793,-9.794752 -0.91925,-3.962278 -3.23322,-6.751721 h 31.88841 q 1.8385,0.0317 3.93058,0.0634 2.12378,0.0317 3.70869,0.126793 1.58491,0.0634 3.32831,0.285284 1.7751,0.190189 3.51851,0.602266 2.53585,0.792456 4.88152,2.345668 2.34567,1.521515 4.15247,3.518503 1.8068,1.996988 3.16982,4.469449 1.26793,2.56755 1.99699,5.67398 0.72906,3.10642 0.72906,6.14945 0,3.20152 -0.82416,6.24455 -0.79245,3.01133 -2.44076,5.64228 -2.12378,4.27926 -6.11776,6.52984 -3.99397,2.25057 -9.44606,3.26491 0.0317,0.0317 2.66265,0.91925 2.63095,0.85585 2.91623,1.01435 2.59926,1.01434 4.72304,2.50415 2.15548,1.45812 5.54719,4.08907 3.4234,2.63096 5.57888,3.86719 1.71171,0 2.66265,-1.17284 0.57057,0.88755 0.57057,1.96529 0,1.17284 -0.63396,2.91624 -0.88755,1.93359 -2.85284,3.26492 -1.96529,1.36302 -4.69134,2.06038 -1.26793,0.12679 -1.8702,0.12679 -3.4234,0 -7.1004,-1.58491 -3.67699,-1.55321 -6.81511,-3.86718 -1.8068,-1.29963 -3.10643,-2.85284 -1.26793,-1.58491 -3.04303,-4.12077 -1.7434,-2.53586 -2.85284,-3.80379 -0.57057,-0.79245 -2.25057,-2.37736 -1.68001,-1.61661 -3.01133,-2.31397 z m 0.50717,1.36302 q 0.50717,0.25359 1.33132,0.91925 0.82416,0.66566 1.74341,1.61661 0.95094,0.91925 1.55321,1.7751 10.42871,15.81741 24.28084,15.81741 2.37736,-0.31698 4.18416,-1.36302 1.8385,-1.01435 3.45511,-2.53586 0.82415,-0.79246 1.33132,-2.09208 0.50717,-1.33133 0.50717,-2.63095 0,-1.55322 -0.66566,-2.78945 -0.60227,-0.76076 -1.04604,-0.91925 -0.12679,0.63397 -0.12679,0.91925 -0.22189,0.76076 -1.8702,1.17284 -2.21887,-1.20454 -5.07171,-3.42341 -2.82115,-2.21888 -4.91323,-3.83549 -2.09208,-1.6483 -4.43775,-2.82114 -0.82415,-0.38038 -2.28227,-0.85585 -1.42642,-0.50717 -2.31397,-0.69736 10.27022,-2.69435 13.94722,-10.33362 1.61661,-2.59925 2.34566,-5.57889 0.76076,-2.97963 0.76076,-6.27624 0,-3.42341 -0.79245,-6.56154 -0.76076,-3.16982 -2.31397,-5.990959 -2.59926,-4.342656 -6.81512,-7.258892 -4.21586,-2.916236 -9.35098,-3.835485 -10.30192,-0.158491 -19.93818,-0.190189 -9.60456,-0.0634 -24.8514,-0.0634 2.63095,2.821142 3.80379,7.1321 1.20453,4.279259 1.52151,10.080035 0.0634,1.17284 0.0634,9.47777 0,15.88081 -0.0634,20.06497 v 1.93359 q -0.0951,2.91624 -0.79245,5.89587 -0.66567,2.94794 -1.8385,5.57889 -1.14114,2.59925 -2.69435,4.75473 h 33.94879 q 0.0634,0 0.19019,-0.63396 -3.36001,-3.93058 -3.36001,-10.6506 0,-1.33133 0.19019,-3.04303 0.19019,-1.71171 0.38038,-2.75775 z" style="font-variant-ligatures:normal;font-variant-caps:normal;font-variant-numeric:normal;font-feature-settings:normal;text-align:center;writing-mode:lr-tb;text-anchor:middle;fill:#ffffff;stroke-width:1.622949" id="path3782" inkscape:connector-curvature="0"/> <path d="m 333.4735,99.405015 q -1.23623,0 -2.34567,-0.380378 -0.98264,-0.697361 -2.85284,-2.31397 -1.87019,-1.61661 -3.13812,-2.630953 -1.23623,-1.046041 -2.31397,-1.680005 1.99698,0 3.74039,0.221887 1.7434,0.19019 3.5819,0.507172 1.96529,0.697361 3.16982,1.204532 1.20453,0.507172 2.28227,1.363024 1.10944,0.855851 1.7117,2.092082 -0.34868,0.0634 -0.72906,0.0634 -2.82114,-2.630952 -5.70568,-3.518502 -2.59925,-0.507171 -3.5185,-0.507171 -0.25358,0.190189 -0.25358,0.443775 0.69736,0.538869 1.87019,1.711704 1.20453,1.141135 2.12378,1.711703 0.91925,0.53887 2.31397,0.665663 0.0317,0.190189 0.1268,0.380379 0.12679,0.158491 0.12679,0.34868 0,0.126793 -0.19019,0.316982 z m -24.59782,2.979635 q -0.22189,0.22189 -0.41208,0.22189 -0.25358,0 -0.53887,-0.44378 -0.25358,-0.47547 -0.28528,-0.72906 0.95095,-3.043028 0.95095,-4.501146 0,-1.046041 -0.25359,-1.806798 h -8.9389 q -0.28528,0.09509 -0.28528,0.380378 0.28528,0.855852 0.76076,1.42642 0.50717,0.570568 1.17283,1.172834 0.66566,0.570568 1.52151,1.299627 -0.31698,0.919245 -1.17283,0.919245 -1.58491,-0.855848 -3.64529,-2.726043 -1.17284,-1.743402 -1.17284,-3.264917 0,-0.602266 0.22189,-1.141136 h 13.21816 q 0.28528,1.141136 0.28528,2.789444 -0.0951,3.613597 -1.42642,6.403042 z m -3.96228,3.01133 q -1.39472,0.41208 -1.93359,0.72906 -0.50717,0.28528 -0.53887,0.28528 0.0317,0 -0.53887,-0.12679 -0.25358,-0.25359 -0.57057,-0.88755 -0.12679,-0.69736 -0.12679,-1.04604 0,-2.15548 2.40907,-4.691339 0.76075,-1.077739 0.76075,-1.616609 0,-0.475473 -0.25358,-0.824154 -0.31698,-0.158491 -0.91925,-0.158491 h -1.99699 q -0.31698,-0.221888 -0.31698,-0.380379 0,-0.158491 0.31698,-0.633964 0.63397,-0.126793 1.93359,-0.126793 2.59926,0.158491 3.13813,0.253586 0.12679,0.760757 0.12679,1.046041 0,1.172834 -0.44378,1.870195 -0.41207,0.697361 -1.7434,2.345667 -1.29962,1.61661 -1.58491,2.59926 0.22189,0.38037 0.63397,0.50717 l 0.85585,-0.38038 q 0.53887,0.22189 0.66566,0.44377 0.12679,0.19019 0.12679,0.79246 z m -1.36302,6.21285 q -0.0317,0.12679 -0.60227,0.69736 -0.57056,0.57057 -0.91924,0.79246 -1.61661,-1.29963 -2.66266,-2.75775 -1.01434,-1.48982 -2.06038,-3.80379 -0.31698,-2.69434 -0.31698,-3.4868 0,-2.59925 1.17283,-3.772088 1.23623,0.919248 1.23623,1.489818 -0.47547,1.17283 -0.47547,3.77209 0.34868,2.06038 1.45812,3.64529 1.10944,1.55321 3.16982,3.42341 z m 5.10341,4.69134 q -0.0951,0.19019 -0.25358,0.19019 -0.15849,0 -0.38038,-0.53887 -0.22189,-0.57057 -0.31698,-0.95095 1.01434,-2.53586 1.01434,-5.00832 -0.15849,-2.31397 -1.14114,-3.74039 -0.98264,-1.42642 -3.07472,-3.64529 l 1.04604,-0.91925 q 2.47246,1.7751 4.27926,4.84982 0.72906,1.48982 0.72906,3.51851 0,3.5819 -1.9019,6.24455 z m -7.0053,3.4234 q -0.57057,0 -0.79246,-0.28528 -0.19019,-0.28528 -0.19019,-0.95095 0,-1.48981 0.53887,-2.44076 0.57057,-0.98264 1.8702,-2.40906 1.29962,-1.45812 1.83849,-2.28228 0.53887,-0.85585 0.63397,-2.06038 -0.15849,-0.19019 -0.22189,-0.34868 -0.0634,-0.15849 -0.15849,-0.25359 -0.0951,-0.12679 -0.25359,-0.12679 l -1.90189,0.72906 -1.10944,-1.39472 q 2.63095,-1.26793 3.77209,-1.26793 0.28528,0 0.79246,0.12679 0.76075,0.85585 0.76075,2.12378 0,0.95095 -0.38038,1.7751 -0.69736,1.29963 -1.90189,2.72605 -1.20453,1.39472 -1.7117,2.12378 -0.50717,0.72906 -0.85585,2.09208 0.0634,0.38038 0.19018,0.50717 0.1268,0.1268 0.63397,0.1268 0.15849,-0.0317 0.72906,-0.31698 0.60226,-0.31699 0.82415,-0.31699 0.15849,0 0.28529,0.1268 0.25358,0.25358 0.25358,0.95094 -0.85585,0.47548 -1.96529,0.76076 -1.07774,0.28528 -1.68,0.28528 z m 1.42642,4.75474 q 0.19019,0.0951 0.19019,0.25358 0,0.25359 -0.41208,0.57057 -0.41208,0.28528 -0.72906,0.28528 -1.58491,-1.52151 -2.53586,-2.50415 -0.95094,-0.98265 -1.7751,-2.28228 -0.82415,-1.29962 -1.17283,-2.88453 0,-2.18718 0.57057,-3.96228 0.57056,-1.7751 1.45811,-2.59926 0.19019,0 0.63397,0.44378 0.15849,0.22189 0.15849,0.66566 0,0.82416 -0.53887,1.36303 -0.44378,0.98264 -0.44378,2.34566 0,2.85284 1.74341,5.4521 z m 6.62492,4.21586 q -0.12679,0.12679 -0.25358,0.12679 -0.22189,0 -0.57057,-0.47547 -0.34868,-0.50717 -0.41208,-0.69736 0.25359,-1.01434 0.25359,-2.34567 0,-4.34266 -4.27926,-9.79475 0.0317,-0.34868 0.31698,-0.63396 0.28529,-0.31699 0.53887,-0.34868 0.95095,0.44377 2.21888,2.40906 1.39472,1.48982 2.15548,3.6136 0.76075,2.12378 0.76075,4.37435 0,1.8385 -0.72906,3.77209 z m -8.30493,4.84983 q -0.47547,-0.47548 -0.57057,-1.36303 0.25359,-2.12378 1.07774,-3.64529 0.82416,-1.55321 2.53586,-3.6136 0.91925,-1.26793 0.91925,-1.99699 0,-0.22188 -0.12679,-0.47547 -0.41208,0 -1.07774,0.28528 -0.66567,0.25359 -0.95095,0.25359 -0.12679,0 -0.38038,-0.12679 -0.31698,-0.38038 -0.31698,-0.60227 0,-0.28528 0.31698,-0.44377 0.41208,-0.34868 1.26793,-0.69736 0.88755,-0.34868 1.58491,-0.34868 0.34868,0 0.60227,0.12679 0.0317,0 0.19019,0.50717 0.25358,0.72906 0.25358,1.64831 0,2.25057 -1.8068,3.89888 -0.57056,0.85585 -1.04604,1.52151 -0.44377,0.66567 -0.82415,1.45812 -0.34868,0.79246 -0.34868,1.7434 0,0.1268 0.19019,0.1268 0.22188,0 0.66566,-0.19019 0.44377,-0.22189 0.98264,-0.47548 0.57057,-0.28528 1.20454,-0.57057 0.47547,0.47548 0.47547,1.04605 0,0.28528 -0.22189,0.38037 -0.44377,0.1585 -1.52151,0.63397 -1.07774,0.47547 -1.8068,0.69736 -0.69736,0.22189 -1.26793,0.22189 z m 0.44378,6.18115 q -3.83549,-1.93359 -4.65964,-6.43474 -0.31698,-0.95094 -0.31698,-2.31397 0,-1.7751 0.63396,-3.4868 0.63396,-1.7434 1.61661,-2.88454 0.25358,0.12679 0.50717,0.22189 0.28528,0.0951 0.44378,0.28528 0.15849,0.19019 0.15849,0.47547 -0.22189,0.38038 -0.57057,0.91925 -0.31698,0.50717 -0.57057,1.01435 -0.22189,0.47547 -0.34868,0.91924 -0.19019,0.85586 -0.19019,1.68001 0,2.47246 1.23623,4.78643 1.26793,2.31397 3.23322,3.6453 -0.28528,0.82415 -1.17283,1.17283 z m 7.86115,1.55321 q -0.19019,0.19019 -0.38037,0.19019 -0.0951,0 -0.31699,-0.12679 -0.22188,-0.12679 -0.34868,-0.25359 -0.12679,-0.15849 -0.25358,-0.25358 -0.0951,-0.12679 -0.19019,-0.19019 0.57057,-1.93359 0.57057,-3.89888 0,-2.56756 -0.88755,-4.78643 -0.85586,-2.25058 -2.59926,-3.99398 0.15849,-0.15849 0.38038,-0.50717 0.25359,-0.38038 0.53887,-0.50717 0.69736,0.41207 1.7117,1.68 1.01435,1.26793 1.20454,1.48982 1.48981,3.04303 1.48981,6.49813 0,2.47247 -0.91925,4.65964 z m -7.1321,4.15247 q -0.60226,-0.15849 -0.88755,-0.28528 -0.28528,-0.1585 -0.28528,-0.47548 0,-1.61661 0.66566,-2.75774 0.66567,-1.14114 1.99699,-2.63095 1.36302,-1.52152 1.8702,-2.28228 0,0.0634 -0.19019,-0.50717 -0.19019,-0.12679 -0.57057,-0.12679 -0.38038,0 -1.10944,0.28528 -0.72906,0.28529 -1.04604,0.34868 -0.63396,-0.15849 -0.91925,-0.41207 -0.25358,-0.25359 -0.25358,-0.95095 3.10642,-1.7434 4.81813,-1.7434 0.28528,0 0.85585,0.12679 0.0634,0 0.19019,0.50717 0.25358,0.95095 0.25358,1.29963 0,1.17283 -0.66566,2.12378 -0.66566,0.95095 -2.09208,2.47246 -1.42642,1.48982 -1.8702,2.28227 0,0.38038 0.0317,0.95095 0.0634,0.53887 0.25359,0.53887 1.23623,0 2.37736,-0.57057 l 0.60227,0.91925 q -1.42642,0.88755 -4.02568,0.88755 z m -4.81812,2.34567 q -0.22189,0 -0.25359,-0.0317 -0.0317,-0.0317 -0.19019,-0.25359 -0.15849,-0.25358 -0.31698,-0.44377 -0.19019,-0.66566 -0.19019,-1.42642 0,-0.82415 0.19019,-1.7434 0.0634,-0.22189 0.38038,-1.48982 0.34868,-1.29963 0.72906,-2.06038 0.38037,-0.79246 1.01434,-1.10944 0.72906,0.19019 0.98264,0.95095 -1.17283,1.7751 -1.17283,5.73737 0,0 0.47547,0.31699 0.72906,0 1.10944,0.0317 0.38038,0 0.95095,0.0317 0.60226,0.0317 1.26793,0.0951 0.69736,0.0317 1.26792,0.0317 2.53586,0 4.08908,-0.79245 0,-1.23623 -0.76076,-2.06039 -0.72906,-0.85585 -2.09208,-1.90189 0.47547,-0.85585 1.23623,-1.01434 1.83849,0.85585 3.16982,3.67699 0.44377,1.39472 0.44377,2.09208 0,0.88755 -0.57057,1.36303 z m 39.55937,-44.5994 h -0.72906 q -0.91924,-0.63396 -1.33132,-2.02868 -0.41208,-1.394724 -0.82415,-2.662653 -0.41208,-1.267929 -1.48982,-1.806799 -0.38038,-0.221887 -0.82415,-0.316982 -0.41208,-0.126793 -0.72906,-0.126793 0.15849,0.633965 0.19019,0.792456 0.0634,0.126793 0.0634,0.190189 0.0634,0 -0.0951,-0.0951 -0.15849,-0.126792 -0.22189,-0.126792 l -1.23623,-1.363024 q 2.21887,0 2.72605,0.221888 1.29962,0.380378 1.83849,1.331325 0.57057,0.919248 1.07774,2.66265 0.53887,1.711705 1.04604,2.345675 0.25359,0 0.31699,-0.66566 0.0634,-0.69736 0.22188,-0.76076 0.38038,0 0.50717,0.12679 0.19019,0.28529 0.19019,0.66566 0,0.50718 -0.22188,0.95095 -0.22189,0.41208 -0.47548,0.66566 z m 0.95095,3.36001 q -4.81813,-2.21887 -6.14945,-6.14945 0.57056,0 0.95094,0.25359 0.38038,0.76075 0.95095,1.45811 0.57057,0.69736 1.39472,1.39473 0.85585,0.69736 1.68001,1.26792 0.82415,0.53887 1.58491,1.07774 0,0.25359 -0.0317,0.31699 0,0.0634 -0.12679,0.19019 -0.1268,0.0951 -0.25359,0.19018 z m 5.07172,0.22189 q -0.69737,0 -0.95095,-0.12679 -0.25359,-0.12679 -0.41208,-0.47547 -0.12679,-0.57057 -0.12679,-1.61661 -0.50717,-1.8385 -2.02869,-3.16983 -1.52151,-1.36302 -3.61359,-1.838492 l -0.0634,-0.88755 q 2.69435,0 4.65964,1.870192 2.53586,2.53586 2.53586,6.24455 z m -4.21587,6.40304 h -0.19019 q -0.72906,-1.01434 -0.72906,-2.37736 0,-1.26793 0.79246,-3.36002 0.79245,-2.09208 0.82415,-2.88453 -0.19019,-0.38038 -0.38038,-0.38038 l -1.04604,0.50717 q -0.57057,-0.22189 -0.57057,-0.63396 0.57057,-0.63397 0.85586,-0.88755 0.31698,-0.28529 0.76075,-0.28529 0.28529,0.0951 0.91925,0.69736 0.50717,0.72906 0.50717,1.71171 0,0.95094 -0.66566,2.59925 -0.66566,1.64831 -0.76076,2.25057 0,0.60227 0.0634,0.82416 0.0951,0.22188 0.38038,0.22188 0.0634,-0.0317 0.38038,-0.47547 0.31698,-0.47547 0.57057,-0.72906 0.28528,-0.28528 0.63396,-0.28528 0.31698,0.31698 0.31698,0.44377 -0.82415,1.36303 -1.45812,2.21888 -0.60226,0.82415 -1.20453,0.82415 z m 0.31698,2.78945 q -0.12679,0.53887 -0.69736,0.53887 -1.68,-1.26793 -2.59925,-2.85284 -0.60227,-1.52152 -0.60227,-3.45511 0,-2.34567 1.04604,-3.6453 0.22189,0 0.38038,0.0951 0.19019,0.0951 0.34868,0.19019 0,0.57057 -0.22188,1.01434 -0.63397,1.23623 -0.63397,2.47246 0,1.45812 0.76076,2.78945 0.79245,1.29962 2.21887,2.85284 z m 2.85284,4.31095 q -0.19019,-0.19019 -0.38037,-0.38037 -0.19019,-0.22189 -0.38038,-0.41208 0.60226,-1.55321 1.29962,-3.42341 0.69736,-1.87019 0.69736,-4.02567 -0.72905,-2.59926 -2.72604,-3.96228 0.12679,-0.44378 0.19019,-0.53887 0.0634,-0.12679 0.34868,-0.19019 0.19019,0.0317 0.34868,0.0634 0.19019,0.0317 0.53887,0.19019 1.83849,1.7434 2.40906,4.15246 0,4.56455 -2.34567,8.52682 z m -5.2619,2.25058 q -0.0951,-0.0634 -0.19019,-0.0951 -0.0951,-0.0634 -0.19019,-0.0951 -0.12679,-0.25359 -0.12679,-0.63397 0,-0.28528 0.15849,-0.69736 0.15849,-0.41207 0.31698,-0.66566 0.19019,-0.25359 0.31698,-0.44377 0.15849,-0.19019 0.50717,-0.72906 0.91925,-1.20454 2.53586,-2.66265 0.82416,-1.01435 0.82416,-1.68001 0,-0.31698 -0.19019,-0.41208 -0.0317,0 -0.47548,0.1268 -0.44377,0.12679 -0.69736,0.12679 -0.25358,0 -0.25358,-0.31698 1.42642,-1.36303 2.21887,-1.36303 0.25359,0 0.44378,0.19019 0,2.25058 -0.98265,3.6136 -0.95094,1.36302 -3.29661,3.86718 0,0.50717 0.25358,0.50717 0.19019,0 0.63397,-0.12679 0.44377,-0.12679 0.72906,-0.12679 v 0.50717 q -0.82416,0.60227 -2.53586,1.10944 z m -2.59925,2.66265 q -0.47548,0.19019 -0.76076,0.19019 0,-3.677 0.76076,-6.02266 0.41207,-0.76076 0.72905,-1.39473 0.34868,-0.66566 0.76076,-1.07774 0.41208,-0.41207 1.04604,-0.57056 0.38038,0.0634 0.47548,0.12679 0.12679,0.0317 0.12679,0.38038 -1.26793,0.98264 -1.93359,2.31397 -0.63397,1.29962 -0.85585,2.66265 -0.22189,1.36302 -0.34868,3.39171 z m -17.52912,3.20152 q -0.0634,0 -0.15849,0.0317 -0.0634,0 -0.15849,0.0317 V 95.125756 q 0.0317,0 0.31698,-0.0634 0.28528,-0.0634 0.41208,-0.0634 2.25057,0.538869 4.50114,1.711704 2.25058,1.172834 4.05738,2.852839 1.80679,1.680001 2.97963,3.486801 1.07774,1.8068 1.64831,4.15247 0.57056,2.31397 0.57056,4.59624 0,5.3887 -2.66265,9.41437 -4.56454,6.40304 -11.50645,7.1638 z m 17.8778,0.95094 q 0.0951,-0.25358 0.19019,-0.47547 0.0951,-0.25358 0.19018,-0.47547 1.61661,-1.04604 2.18718,-1.48982 0.57057,-0.44377 1.33133,-1.45812 0.72906,-0.82415 1.20453,-2.06038 0.47547,-1.23623 0.47547,-2.53586 0,-0.82415 -0.19019,-1.48981 0.44378,-0.44378 0.76076,-0.44378 0.19019,0.50717 0.19019,1.48982 0,1.17283 -0.0634,1.8068 -0.95094,4.50114 -6.27624,7.13209 z m -5.4521,0.28529 q -0.44377,0.12679 -0.41207,0.12679 -0.31699,0 -0.31699,-0.34868 0.76076,-1.14114 2.40907,-2.02869 1.64831,-0.88755 3.64529,-1.45811 0.53887,-0.1268 1.55322,-0.76076 1.01434,-0.66566 1.01434,-0.79246 l -1.42642,0.0634 q -0.19019,-0.47547 -0.19019,-0.72906 0.95095,-0.12679 1.29963,-0.12679 0.95094,0 1.36302,0.31698 0.12679,0.12679 0.12679,0.47547 -0.38038,0.95095 -1.48981,1.52152 -1.10944,0.53887 -3.13813,1.20453 -2.02868,0.63397 -2.88454,1.01434 0,0.0317 -0.31698,0.31699 -0.28528,0.25358 -0.28528,0.34868 0,0.12679 1.42642,0.12679 0,0.0634 -0.22189,0.25359 -0.22189,0.19018 -0.22189,0.25358 z m -13.24985,-0.41208 q 3.80378,-0.0317 7.1004,-1.8385 3.29661,-1.83849 5.61058,-4.97662 1.64831,-2.09208 2.59926,-4.91322 0.98264,-2.85284 0.98264,-5.67398 0,-1.36302 -0.31698,-3.10643 -0.79246,-4.05737 -3.26492,-7.25889 -2.44076,-3.233217 -5.89587,-5.13511 -4.12076,-2.409065 -6.43473,-2.409065 -0.31699,0 -0.82416,0.126793 v 35.121632 q 0.19019,0 0.44378,0.0634 z m 7.79776,2.21888 q -0.0951,-0.0317 -0.19019,-0.0634 -0.0634,-0.0317 -0.15849,-0.0634 2.78944,-2.78944 4.72303,-4.27926 1.96529,-1.48981 4.31096,-2.15547 0.19019,0.0951 0.19019,0.85585 -4.08907,1.39472 -6.49814,4.72303 0.25359,0.38038 0.41208,0.38038 2.75775,-0.31698 4.59624,-0.88755 1.8385,-0.57057 2.66265,-1.96529 0.66567,0 0.72906,0.12679 -0.41207,1.36303 -2.02868,2.15548 -3.04303,1.29963 -6.37135,1.29963 -0.85585,0 -2.37736,-0.12679 z m -12.36231,17.7193 V 92.843484 q 1.68001,-0.633965 3.89888,-0.633965 2.78945,0 5.3253,0.760758 5.19851,1.838496 8.84381,5.800774 1.45812,1.584909 2.56755,3.772089 1.10944,2.18718 1.68001,4.59624 0.60227,2.40907 0.60227,4.88153 0,1.93359 -0.38038,3.80378 -0.95095,4.31096 -3.6453,7.73437 -2.69435,3.42341 -6.52983,5.64228 -1.29963,0.85585 -4.34266,1.7434 -3.01133,0.85586 -3.13812,0.91925 1.33132,0.12679 4.27926,0.41208 2.94793,0.25358 4.94492,0.25358 2.44076,0 4.34266,-0.28528 7.44908,-1.87019 12.93287,-10.11173 1.26793,-2.02869 1.8385,-4.40605 0.60226,-2.40907 0.60226,-5.13512 0,-5.45209 -2.37736,-10.27022 -1.33133,-2.409063 -3.20152,-4.279258 -1.8702,-1.870195 -4.24757,-3.264917 -2.34566,-1.42642 -5.10341,-2.250573 -1.7117,-0.475474 -3.4551,-0.665663 -1.71171,-0.221888 -3.13813,-0.285284 -1.42642,-0.0634 -3.10642,-0.0951 -1.68001,-0.0634 -3.99398,-0.190189 -1.7751,0.0634 -5.00832,0.221888 -3.23322,0.158491 -5.54719,0.253585 -2.28227,0.0951 -5.48379,0.221888 -3.16982,0.0951 -5.83247,0.0951 v 57.056793 z m 6.11776,3.16982 h -30.3669 q 2.69435,-4.31095 3.6136,-9.95324 0.91925,-5.64228 0.91925,-12.61589 0.12679,-6.65662 0.12679,-10.5872 0,-8.11475 -0.31698,-13.37665 -0.31698,-5.832475 -1.26793,-9.794752 -0.91925,-3.962278 -3.23322,-6.751721 h 31.88841 q 1.8385,0.0317 3.93058,0.0634 2.12378,0.0317 3.70869,0.126793 1.58491,0.0634 3.32832,0.285284 1.7751,0.190189 3.5185,0.602266 2.53586,0.792456 4.88152,2.345668 2.34567,1.521515 4.15247,3.518503 1.8068,1.996988 3.16982,4.469449 1.26793,2.56755 1.99699,5.67398 0.72906,3.10642 0.72906,6.14945 0,3.20152 -0.82415,6.24455 -0.79246,3.01133 -2.44077,5.64228 -1.87019,3.7087 -5.16681,5.92757 -3.29661,2.21888 -7.25889,3.20152 -3.93058,0.95095 -9.12909,1.26793 -5.16681,0.31698 -8.05134,0.44378 -0.50717,3.20152 -0.50717,6.27624 0,6.84682 2.59925,10.84079 z m 1.48982,0.91925 q 0.0634,0 0.19018,-0.63396 -3.36001,-3.93058 -3.36001,-10.6506 0,-2.44077 0.57057,-5.86417 7.29059,-0.25359 12.5208,-1.01435 5.2302,-0.79245 9.92154,-3.39171 4.72304,-2.59925 7.1638,-7.60757 1.61661,-2.59925 2.34567,-5.57889 0.76075,-2.97963 0.76075,-6.27624 0,-3.42341 -0.79245,-6.56154 -0.76076,-3.16982 -2.31397,-5.990959 -2.59926,-4.342656 -6.81512,-7.258892 -4.21586,-2.916236 -9.35097,-3.835485 -10.30192,-0.158491 -19.93818,-0.190189 -9.60456,-0.0634 -24.85141,-0.0634 2.63095,2.821142 3.80379,7.1321 1.20453,4.279259 1.52151,10.080035 0.0634,1.17284 0.0634,9.47777 0,15.88081 -0.0634,20.06497 v 1.93359 q -0.0951,2.91624 -0.79245,5.89587 -0.66566,2.94794 -1.8385,5.57889 -1.14113,2.59925 -2.69435,4.75473 z" style="font-variant-ligatures:normal;font-variant-caps:normal;font-variant-numeric:normal;font-feature-settings:normal;text-align:center;writing-mode:lr-tb;text-anchor:middle;fill:#ffffff;stroke-width:1.622949" id="path3784" inkscape:connector-curvature="0"/> </g> </g></svg>